<?xml version="1.0" encoding="UTF-8" standalone="no"?>
<!-- Created with Inkscape (http://www.inkscape.org/) -->

<svg
   width="159.76085"
   height="165.742"
   viewBox="0 0 159.76085 165.742"
   version="1.1"
   id="svg1"
   xml:space="preserve"
   inkscape:version="1.4 (86a8ad7, 2024-10-11)"
   sodipodi:docname="cook.svg"
   xmlns:inkscape="http://www.inkscape.org/namespaces/inkscape"
   xmlns:sodipodi="http://sodipodi.sourceforge.net/DTD/sodipodi-0.dtd"
   xmlns:xlink="http://www.w3.org/1999/xlink"
   xmlns="http://www.w3.org/2000/svg"
   xmlns:svg="http://www.w3.org/2000/svg"><sodipodi:namedview
     id="namedview1"
     pagecolor="#ffffff"
     bordercolor="#000000"
     borderopacity="0.25"
     inkscape:showpageshadow="2"
     inkscape:pageopacity="0.0"
     inkscape:pagecheckerboard="0"
     inkscape:deskcolor="#d1d1d1"
     inkscape:document-units="px"
     inkscape:zoom="2"
     inkscape:cx="28.75"
     inkscape:cy="99.25"
     inkscape:window-width="1920"
     inkscape:window-height="1009"
     inkscape:window-x="-8"
     inkscape:window-y="-8"
     inkscape:window-maximized="1"
     inkscape:current-layer="svg1" /><defs
     id="defs1"><linearGradient
       id="linearGradient12"
       inkscape:collect="always"><stop
         style="stop-color:#ffdd70;stop-opacity:1;"
         offset="0"
         id="stop12" /><stop
         style="stop-color:#ffd270;stop-opacity:1;"
         offset="1"
         id="stop13" /></linearGradient><linearGradient
       inkscape:collect="always"
       xlink:href="#linearGradient12"
       id="linearGradient13"
       x1="35.129822"
       y1="57.178661"
       x2="136.90422"
       y2="170.21059"
       gradientUnits="userSpaceOnUse" /></defs><g
     inkscape:groupmode="layer"
     id="vertices"
     inkscape:label="vertices"
     style="display:none"
     transform="translate(-9.076225,-7.7733826)"><path
       style="opacity:1;fill:#dcba6c;fill-opacity:1;stroke:#3f2c1f;stroke-width:2;stroke-linecap:round;stroke-linejoin:round;stroke-dasharray:none;stroke-opacity:1"
       d="m 24,30 -17,80.5 7.5,59 H 160 L 170,44.5 104.5,8 49.5,6 Z"
       id="path13" /></g><g
     inkscape:groupmode="layer"
     id="layer5"
     inkscape:label="image"
     transform="translate(-9.076225,-7.7733826)"><path
       style="opacity:1;fill:#ffffff;fill-opacity:1;stroke:none;stroke-linejoin:round"
       d="M 32.717776,59.007883 C 29.182242,52.113592 24.662951,44.828058 25.723611,29.448485 26.131557,23.533265 46.492271,7.9549513 52.149125,7.7781746 c 5.656854,-0.1767767 16.970563,4.5961944 19.79899,4.5961944 2.828427,0 35.178565,-2.298097 40.128305,-0.53033 4.94975,1.767767 19.09189,14.318912 22.8042,16.263456 3.71231,1.944543 30.75914,15.379572 32.35013,18.384776 1.59099,3.005204 2.47488,27.854446 0.35356,31.743533 -2.12132,3.889088 -14.31891,17.753942 -17.14734,17.930718 C 147.60854,96.343299 32.717776,59.007883 32.717776,59.007883 Z"
       id="path3"
       sodipodi:nodetypes="cssssssssc" /><path
       style="display:inline;opacity:1;fill:url(#linearGradient13);fill-opacity:1;stroke:none;stroke-linejoin:round"
       d="M 35.75,53.875 C 23.75,73.375 10.2727,89.500208 10,118 c -0.1035534,10.82233 -0.5590304,45.23057 10.25,49.75 7.572681,3.16626 42,6 63.25,5.75 21.25,-0.25 64.30589,0.15447 72.75,-4 8.82322,-4.34099 7.15533,-18.69365 -1.94454,-27.16421 C 155.80178,119.56103 155.75,112.375 150.25,77.875 127.07758,65.566155 74.474593,53.742348 35.75,53.875 Z"
       id="path1"
       sodipodi:nodetypes="cssssccc" /><path
       style="opacity:1;fill:#ffffff;fill-opacity:1;stroke:none;stroke-linejoin:round"
       d="m 31.410795,60.414737 c 1.944544,-12.020816 4.121321,-13.745689 5.889088,-22.230971 11.313708,-2.12132 38.53732,-3.358757 64.877047,3.889087 24.697,6.79582 46.66905,20.152544 49.49747,23.511301 -0.88388,6.363961 -0.24632,16.836679 -0.24632,16.836679 C 140.99826,77.117532 93.691649,64.523494 77.074639,62.402174 60.45763,60.280853 37.421203,59.884407 31.410795,60.414737 Z"
       id="path2"
       sodipodi:nodetypes="ccsccsc" /><ellipse
       style="opacity:1;fill:#3f2c1f;fill-opacity:1;stroke:none;stroke-width:1.26222;stroke-linejoin:round"
       id="path4"
       cx="55.486767"
       cy="87.986588"
       rx="4.6542315"
       ry="6.4397717"
       transform="matrix(0.99595279,0.08987787,-0.09142887,0.99581161,0,0)" /><ellipse
       style="opacity:1;fill:#3f2c1f;fill-opacity:1;stroke:none;stroke-width:1.05219;stroke-linejoin:round"
       id="path5"
       cx="106.19505"
       cy="75.982391"
       rx="4.5240135"
       ry="6.4572597"
       transform="matrix(0.98696685,0.16092369,-0.16640765,0.98605704,0,0)" /><path
       style="opacity:1;fill:none;stroke:#3f2c1f;stroke-width:4;stroke-linejoin:round;stroke-dasharray:none;stroke-opacity:1"
       d="M 49.375,105.25 C 51.25,117.375 60.75,120.875 64,109.625 70.125,119.25 77.125,122 85.125,103"
       id="path6"
       sodipodi:nodetypes="ccc" /><path
       style="opacity:1;fill:none;stroke:#7d6d62;stroke-width:4;stroke-linecap:round;stroke-linejoin:round;stroke-dasharray:none;stroke-opacity:1"
       d="M 38.714096,100.40916 12.551145,96.343299"
       id="path11" /><path
       style="fill:none;stroke:#7d6d62;stroke-width:4;stroke-linecap:round;stroke-linejoin:round;stroke-dasharray:none;stroke-opacity:1"
       d="m 37.490288,108.36479 -26.414063,1.82442"
       id="path11-4" /><path
       style="opacity:1;fill:#dcba6c;fill-opacity:1;stroke:none;stroke-linejoin:round"
       d="m 17.412505,117.82167 c -1.414214,-5.39169 -3.071716,-16.05165 9.104,-21.920312 5.551313,-2.67572 12.629699,-1.672895 15.291183,-0.265166 -4.507805,5.303298 -6.135407,12.658378 -4.456028,16.459078 3.738512,8.46085 8.079951,10.41098 8.079951,10.41098 z"
       id="path12"
       sodipodi:nodetypes="cscscc" /><path
       style="opacity:1;fill:none;stroke:#7d6d62;stroke-width:4;stroke-linecap:round;stroke-linejoin:round;stroke-dasharray:none;stroke-opacity:1"
       d="m 101.6466,105.18213 31.64303,-2.82842"
       id="path9" /><path
       style="opacity:1;fill:#2b3239;fill-opacity:1;stroke:none;stroke-linejoin:round"
       d="m 105.75,132 c -13,-2.375 -84,-13.75 -90.25,-14.125 1.625,5.75 6.5,17.875 6.5,17.875 6,2.375 54.25,10.75 61.75,10.125 4.75,-5 11.125,-11.375 11.125,-11.375 L 105,135.875 Z"
       id="path8" /><path
       style="opacity:1;fill:none;stroke:#3f2c1f;stroke-width:2;stroke-linejoin:round;stroke-dasharray:none;stroke-opacity:1"
       d="m 108.25,127 c -5.625,6.875 -4.64704,17.6685 4.125,19.75 7.375,1.75 19.25,0.125 27.375,-17.75"
       id="path7"
       sodipodi:nodetypes="csc" /><path
       style="opacity:1;fill:none;stroke:#7d6d62;stroke-width:4;stroke-linecap:round;stroke-linejoin:round;stroke-dasharray:none;stroke-opacity:1"
       d="m 100.76272,113.84419 35.00178,3.88909"
       id="path10" /><path
       style="opacity:1;fill:none;fill-opacity:1;stroke:#b0b0b0;stroke-width:1.5;stroke-linecap:square;stroke-linejoin:round;stroke-dasharray:none;stroke-opacity:1"
       d="M 32.350135,56.745319 37.476659,37.830213 C 85.777563,31.858285 121.25127,45.300498 152.20473,65.584154 L 151.6744,80.053193"
       id="path14"
       sodipodi:nodetypes="cccc" /></g></svg>
