<?xml version="1.0" encoding="UTF-8" standalone="no"?>
<!-- Created with Inkscape (http://www.inkscape.org/) -->

<svg
   width="156.9481"
   height="171.44054"
   viewBox="0 0 156.9481 171.44054"
   version="1.1"
   id="svg1"
   xml:space="preserve"
   inkscape:version="1.4 (86a8ad7, 2024-10-11)"
   sodipodi:docname="doctor.svg"
   xmlns:inkscape="http://www.inkscape.org/namespaces/inkscape"
   xmlns:sodipodi="http://sodipodi.sourceforge.net/DTD/sodipodi-0.dtd"
   xmlns:xlink="http://www.w3.org/1999/xlink"
   xmlns="http://www.w3.org/2000/svg"
   xmlns:svg="http://www.w3.org/2000/svg"><sodipodi:namedview
     id="namedview1"
     pagecolor="#ffffff"
     bordercolor="#000000"
     borderopacity="0.25"
     inkscape:showpageshadow="2"
     inkscape:pageopacity="0.0"
     inkscape:pagecheckerboard="0"
     inkscape:deskcolor="#d1d1d1"
     inkscape:document-units="px"
     inkscape:zoom="2.6438781"
     inkscape:cx="45.95522"
     inkscape:cy="60.706278"
     inkscape:window-width="1920"
     inkscape:window-height="1009"
     inkscape:window-x="-8"
     inkscape:window-y="-8"
     inkscape:window-maximized="1"
     inkscape:current-layer="layer1" /><defs
     id="defs1"><linearGradient
       id="linearGradient85"
       inkscape:collect="always"><stop
         style="stop-color:#ffdd70;stop-opacity:1;"
         offset="0"
         id="stop85" /><stop
         style="stop-color:#ffd270;stop-opacity:1;"
         offset="1"
         id="stop86" /></linearGradient><linearGradient
       id="linearGradient12"
       inkscape:collect="always"><stop
         style="stop-color:#ffdd70;stop-opacity:1;"
         offset="0"
         id="stop12" /><stop
         style="stop-color:#ffd270;stop-opacity:1;"
         offset="1"
         id="stop13" /></linearGradient><linearGradient
       inkscape:collect="always"
       xlink:href="#linearGradient12"
       id="linearGradient13"
       x1="35.129822"
       y1="57.178661"
       x2="136.90422"
       y2="170.21059"
       gradientUnits="userSpaceOnUse" /><linearGradient
       inkscape:collect="always"
       xlink:href="#linearGradient85"
       id="linearGradient86"
       x1="36.120705"
       y1="44.7533"
       x2="148.5233"
       y2="149.57042"
       gradientUnits="userSpaceOnUse" /></defs><g
     inkscape:groupmode="layer"
     id="layer5"
     inkscape:label="image_old"
     style="display:none"
     transform="translate(-11.722689,-5.2952499)"><path
       style="display:inline;opacity:1;fill:url(#linearGradient13);stroke:none;stroke-linejoin:round"
       d="M 35.75,53.875 C 23.75,73.375 10.2727,89.500208 10,118 c -0.1035534,10.82233 -0.5590304,45.23057 10.25,49.75 7.572681,3.16626 42,6 63.25,5.75 21.25,-0.25 64.30589,0.15447 72.75,-4 8.82322,-4.34099 7.15533,-18.69365 -1.94454,-27.16421 C 155.80178,119.56103 155.75,112.375 150.25,77.875 127.07758,65.566155 74.474593,53.742348 35.75,53.875 Z"
       id="path1"
       sodipodi:nodetypes="cssssccc"
       inkscape:label="nyanpu" /><ellipse
       style="opacity:1;fill:#3f2c1f;fill-opacity:1;stroke:none;stroke-width:1.26222;stroke-linejoin:round"
       id="path4"
       cx="55.486767"
       cy="87.986588"
       rx="4.6542315"
       ry="6.4397717"
       transform="matrix(0.99595279,0.08987787,-0.09142887,0.99581161,0,0)"
       inkscape:label="eye" /><path
       style="opacity:1;fill:none;stroke:#3f2c1f;stroke-width:4;stroke-linejoin:round;stroke-dasharray:none;stroke-opacity:1"
       d="M 49.375,105.25 C 51.25,117.375 60.75,120.875 64,109.625 70.125,119.25 77.125,122 85.125,103"
       id="path6"
       sodipodi:nodetypes="ccc"
       inkscape:label="kuchi" /><path
       style="opacity:1;fill:none;stroke:#7d6d62;stroke-width:4;stroke-linecap:round;stroke-linejoin:round;stroke-dasharray:none;stroke-opacity:1"
       d="M 38.714096,100.40916 12.551145,96.343299"
       id="path11"
       inkscape:label="hige" /></g><g
     inkscape:groupmode="layer"
     id="layer1"
     inkscape:label="image"
     style="display:inline"
     transform="translate(-11.722689,-5.2952499)"><path
       style="opacity:1;fill:url(#linearGradient86);fill-opacity:1;stroke:none;stroke-width:1;stroke-linecap:round;stroke-linejoin:round;stroke-dasharray:none;stroke-opacity:1"
       d="M 64.110368,35.1756 C 75.601836,30.683353 95.341247,30.398575 107.60708,32.527975 120.63095,24.434969 133.03911,17.64855 146.565,17.5878 c 9.07002,13.70575 8.34454,28.880823 7.56465,44.064059 9.84511,33.859695 13.02233,47.908371 7.56464,84.345791 3.33492,4.26036 7.91385,8.05401 6.80819,19.10074 -0.34608,8.90551 -39.15158,12.28699 -70.351208,11.53608 C 68.141557,176.57225 34.171266,177.50018 29.313,171.1501 16.395662,159.23599 15.588067,147.77039 16.074871,136.35273 17.929166,100.96221 24.561525,73.722497 34.986484,52.952517 Z"
       id="path73"
       sodipodi:nodetypes="ccccccccccc" /><path
       style="opacity:1;fill:#566365;fill-opacity:1;stroke:none;stroke-width:1;stroke-linecap:round;stroke-linejoin:round;stroke-dasharray:none;stroke-opacity:1"
       d="M 157.91197,71.296781 H 26.287142 L 29.691233,60.895394 155.64258,60.706278 Z"
       id="path74" /><path
       style="opacity:1;fill:#566365;fill-opacity:1;stroke:none;stroke-width:1;stroke-linecap:round;stroke-linejoin:round;stroke-dasharray:none;stroke-opacity:1"
       d="m 163.39633,99.285967 c -2.8333,19.953493 -55.90785,38.001233 -101.555355,36.310303 -21.014313,-1.51752 -46.33507,-7.6848 -43.496711,-23.45041 2.203696,-12.240382 0.945581,-8.88845 0.945581,-8.88845 -3.971438,-10e-6 -7.677477,4.30098 -7.564644,14.56194 0.08901,8.09474 6.024562,17.5007 43.118477,24.77421 1.891161,9.64493 3.971438,28.74566 21.937471,27.61096 17.966032,-1.1347 20.991891,-20.42454 20.613658,-24.5851 -7.753761,0.94558 -6.634024,-5.33961 -8.510226,3.78232 -3.699766,17.98794 -24.962869,20.66489 -25.08755,-6.54073 71.210099,-3.42394 104.133299,-24.53164 103.948979,-38.4689 -0.0401,-3.0315 -4.34968,-5.106143 -4.34968,-5.106143 z"
       id="path75"
       sodipodi:nodetypes="ccccscscscsc" /><ellipse
       style="opacity:1;fill:#d7faff;fill-opacity:1;stroke:none;stroke-width:1;stroke-linecap:round;stroke-linejoin:round;stroke-dasharray:none;stroke-opacity:1"
       id="path76"
       cx="89.0737"
       cy="138.05478"
       rx="14.18371"
       ry="13.805477" /><circle
       style="opacity:1;fill:#d7faff;fill-opacity:1;stroke:none;stroke-width:1;stroke-linecap:round;stroke-linejoin:round;stroke-dasharray:none;stroke-opacity:1"
       id="path77"
       cx="57.20763"
       cy="37.728668"
       r="32.433418" /><path
       style="opacity:1;fill:none;fill-opacity:1;stroke:#a19791;stroke-width:4;stroke-linecap:round;stroke-linejoin:round;stroke-dasharray:none;stroke-opacity:1"
       d="m 100.98801,96.638343 26.66538,-4.349671"
       id="path78" /><path
       style="opacity:1;fill:none;fill-opacity:1;stroke:#a19791;stroke-width:4;stroke-linecap:round;stroke-linejoin:round;stroke-dasharray:none;stroke-opacity:1"
       d="m 100.42067,105.14857 27.61095,5.8626"
       id="path79" /><path
       style="opacity:1;fill:none;fill-opacity:1;stroke:#a19791;stroke-width:4;stroke-linecap:round;stroke-linejoin:round;stroke-dasharray:none;stroke-opacity:1"
       d="M 43.118478,98.907736 18.155149,94.747181"
       id="path80" /><path
       style="opacity:1;fill:none;fill-opacity:1;stroke:#a19791;stroke-width:4;stroke-linecap:round;stroke-linejoin:round;stroke-dasharray:none;stroke-opacity:1"
       d="m 43.49671,106.47238 -25.90891,4.7279"
       id="path81" /><path
       style="opacity:1;fill:none;fill-opacity:1;stroke:#68574c;stroke-width:4;stroke-linecap:square;stroke-linejoin:round;stroke-dasharray:none;stroke-opacity:1"
       d="m 86.615188,100.04243 c -4.727903,16.45311 -14.18371,12.10343 -17.966033,0.18912 -2.269393,14.75106 -9.077574,12.67078 -13.427245,0.37823"
       id="path82"
       sodipodi:nodetypes="ccc" /><ellipse
       style="opacity:1;fill:#68574c;fill-opacity:1;stroke:none;stroke-width:1.09895;stroke-linecap:round;stroke-linejoin:round;stroke-dasharray:none;stroke-opacity:1"
       id="path83"
       cx="110.39757"
       cy="65.646751"
       rx="4.9070187"
       ry="7.0022416"
       transform="matrix(0.98449963,0.17538663,-0.18136725,0.98341544,0,0)" /><ellipse
       style="opacity:1;fill:#68574c;fill-opacity:1;stroke:none;stroke-width:1.01321;stroke-linecap:round;stroke-linejoin:round;stroke-dasharray:none;stroke-opacity:1"
       id="path84"
       cx="64.063766"
       cy="75.161469"
       rx="4.9104147"
       ry="6.7070184"
       transform="rotate(9.3094602)" /><path
       style="opacity:1;fill:#ffd470;fill-opacity:1;stroke:#68574c;stroke-width:2;stroke-linecap:square;stroke-linejoin:round;stroke-dasharray:none;stroke-opacity:1"
       d="m 133.7253,142.55117 c -13.63998,-11.50038 -23.8031,-14.97724 -30.75682,-8.55842 -6.953716,6.41881 -8.82587,17.11684 7.22117,23.8031"
       id="path85" /></g><g
     inkscape:groupmode="layer"
     id="vertices"
     inkscape:label="vertices"
     style="display:inline"
     transform="translate(-11.722689,-5.2952499)"><path
       style="display:none;opacity:1;fill:none;fill-opacity:1;stroke:#3f2c1f;stroke-width:1;stroke-linecap:round;stroke-linejoin:round;stroke-dasharray:none;stroke-opacity:1"
       d="M 19.478018,89.670348 16.587813,172.12524 171.22465,175.26398 143.28123,15.178923 100.42346,30.854827 52.976423,2.970477 24.022668,29.259369 Z"
       id="path13"
       sodipodi:nodetypes="cccccccc" /></g></svg>
