<?xml version="1.0" encoding="UTF-8" standalone="no"?>
<!-- Created with Inkscape (http://www.inkscape.org/) -->

<svg
   width="167.12076"
   height="167.35921"
   viewBox="0 0 167.12076 167.35921"
   version="1.1"
   id="svg1"
   xml:space="preserve"
   inkscape:version="1.4 (86a8ad7, 2024-10-11)"
   sodipodi:docname="driving.svg"
   xmlns:inkscape="http://www.inkscape.org/namespaces/inkscape"
   xmlns:sodipodi="http://sodipodi.sourceforge.net/DTD/sodipodi-0.dtd"
   xmlns:xlink="http://www.w3.org/1999/xlink"
   xmlns="http://www.w3.org/2000/svg"
   xmlns:svg="http://www.w3.org/2000/svg"><sodipodi:namedview
     id="namedview1"
     pagecolor="#ffffff"
     bordercolor="#000000"
     borderopacity="0.25"
     inkscape:showpageshadow="2"
     inkscape:pageopacity="0.0"
     inkscape:pagecheckerboard="0"
     inkscape:deskcolor="#d1d1d1"
     inkscape:document-units="px"
     inkscape:zoom="3.7390083"
     inkscape:cx="65.391671"
     inkscape:cy="95.078687"
     inkscape:window-width="1920"
     inkscape:window-height="1009"
     inkscape:window-x="-8"
     inkscape:window-y="-8"
     inkscape:window-maximized="1"
     inkscape:current-layer="svg1" /><defs
     id="defs1"><linearGradient
       id="linearGradient72"
       inkscape:collect="always"><stop
         style="stop-color:#ffdd70;stop-opacity:1;"
         offset="0"
         id="stop72" /><stop
         style="stop-color:#ffd270;stop-opacity:1;"
         offset="1"
         id="stop73" /></linearGradient><linearGradient
       id="linearGradient12"
       inkscape:collect="always"><stop
         style="stop-color:#ffdd70;stop-opacity:1;"
         offset="0"
         id="stop12" /><stop
         style="stop-color:#ffd270;stop-opacity:1;"
         offset="1"
         id="stop13" /></linearGradient><linearGradient
       inkscape:collect="always"
       xlink:href="#linearGradient12"
       id="linearGradient13"
       x1="35.129822"
       y1="57.178661"
       x2="136.90422"
       y2="170.21059"
       gradientUnits="userSpaceOnUse" /><linearGradient
       inkscape:collect="always"
       xlink:href="#linearGradient72"
       id="linearGradient73"
       x1="46.503963"
       y1="56.08918"
       x2="127.03311"
       y2="175.47856"
       gradientUnits="userSpaceOnUse" /></defs><g
     inkscape:groupmode="layer"
     id="layer5"
     inkscape:label="image_old"
     style="display:none"
     transform="translate(-8.9394221,-7.8263392)"><path
       style="display:inline;opacity:1;fill:url(#linearGradient13);stroke:none;stroke-linejoin:round"
       d="M 35.75,53.875 C 23.75,73.375 10.2727,89.500208 10,118 c -0.1035534,10.82233 -0.5590304,45.23057 10.25,49.75 7.572681,3.16626 42,6 63.25,5.75 21.25,-0.25 64.30589,0.15447 72.75,-4 8.82322,-4.34099 7.15533,-18.69365 -1.94454,-27.16421 C 155.80178,119.56103 155.75,112.375 150.25,77.875 127.07758,65.566155 74.474593,53.742348 35.75,53.875 Z"
       id="path1"
       sodipodi:nodetypes="cssssccc"
       inkscape:label="nyanpu" /><ellipse
       style="opacity:1;fill:#3f2c1f;fill-opacity:1;stroke:none;stroke-width:1.26222;stroke-linejoin:round"
       id="path4"
       cx="55.486767"
       cy="87.986588"
       rx="4.6542315"
       ry="6.4397717"
       transform="matrix(0.99595279,0.08987787,-0.09142887,0.99581161,0,0)"
       inkscape:label="eye" /><path
       style="opacity:1;fill:none;stroke:#3f2c1f;stroke-width:4;stroke-linejoin:round;stroke-dasharray:none;stroke-opacity:1"
       d="M 49.375,105.25 C 51.25,117.375 60.75,120.875 64,109.625 70.125,119.25 77.125,122 85.125,103"
       id="path6"
       sodipodi:nodetypes="ccc"
       inkscape:label="kuchi" /><path
       style="opacity:1;fill:none;stroke:#7d6d62;stroke-width:4;stroke-linecap:round;stroke-linejoin:round;stroke-dasharray:none;stroke-opacity:1"
       d="M 38.714096,100.40916 12.551145,96.343299"
       id="path11"
       inkscape:label="hige" /></g><g
     inkscape:groupmode="layer"
     id="layer1"
     inkscape:label="image"
     style="display:inline"
     transform="translate(-8.9394221,-7.8263392)"><path
       style="display:inline;opacity:1;fill:#f54b4b;fill-opacity:1;stroke:none;stroke-width:1;stroke-linecap:square;stroke-linejoin:round;stroke-dasharray:none;stroke-opacity:1"
       d="M 23.5,66.258162 C 20.014605,75.772767 2.453278,109.78247 11.5,122.75 c 9.106538,13.05327 17.730817,-53.62643 12,-56.491838 z"
       id="path58"
       sodipodi:nodetypes="csc" /><path
       style="opacity:1;fill:url(#linearGradient73);fill-opacity:1;stroke:none;stroke-width:1;stroke-linecap:square;stroke-linejoin:round;stroke-dasharray:none;stroke-opacity:1"
       d="M 158,92.25 C 117.00655,40.189327 39.625,58.583333 28,64.875 21.395866,84.5 17.656225,93 15.5,111.5 c -0.964488,10.91667 0.66054,47.08333 12.125,58 30.790067,4.73179 68.101083,7.72624 120.125,3.5 13.46476,-2.65351 12.39926,-13.22565 5.75,-25.125 z"
       id="path57"
       sodipodi:nodetypes="ccccccc" /><path
       id="path60"
       style="display:inline;opacity:1;fill:#2e231b;fill-opacity:1;stroke:none;stroke-width:1;stroke-linecap:square;stroke-linejoin:round;stroke-dasharray:none;stroke-opacity:1"
       d="m 62.828125,106.38281 c -0.89851,-0.002 -1.80758,0.009 -2.724609,0.0371 -28.513368,0.0198 -45.374271,17.71799 -37.298828,39.77344 5.275852,14.40928 16.615848,28.99234 52.501953,28.99219 32.377559,-1.3e-4 40.127639,-18.28517 37.476559,-34.47071 -3.2538,-19.86528 -19.272877,-34.2556 -49.955075,-34.33203 z m -1.486328,9.40625 c 15.82477,-0.15985 33.364526,2.72662 40.125003,19.08594 L 30.480469,134.71484 C 31.340724,122.95265 40.774472,115.9403 61.341797,115.78906 Z M 30.962891,142.16992 60.876953,142.5 67.183594,167.30078 C 51.385464,166.16761 33.835761,156.14163 30.962891,142.16992 Z m 39.578125,0.4375 33.107424,0.36524 c 1.8578,15.15768 -12.406931,22.34602 -26.865237,24.03515 z" /><path
       style="opacity:1;fill:#ffd770;fill-opacity:1;stroke:#3f2c1f;stroke-width:2;stroke-linecap:square;stroke-linejoin:round;stroke-dasharray:none;stroke-opacity:1"
       d="m 100.75,115.875 c -11.561436,9.9666 -8.378442,30.03022 13.36627,24.18039 16.06461,-4.32175 16.26746,-16.92754 12.9505,-27.02921"
       id="path59"
       sodipodi:nodetypes="csc" /><path
       style="opacity:1;fill:#292828;fill-opacity:1;stroke:none;stroke-width:1;stroke-linecap:square;stroke-linejoin:round;stroke-dasharray:none;stroke-opacity:1"
       d="m 152.86664,131.75202 c -5.08937,8.97457 -20.65385,8.36611 -20.83497,-4.18496 -0.17678,-12.25018 2.4948,-19.6684 2.96819,-28.432485 0.8241,-15.257059 -4.9004,-37.427169 4.29199,-36.720062 9.19239,0.707107 19.86042,52.748937 13.57479,69.337507 z"
       id="path62"
       sodipodi:nodetypes="csssc" /><path
       style="opacity:1;fill:#f54b4b;fill-opacity:1;stroke:none;stroke-width:1;stroke-linecap:square;stroke-linejoin:round;stroke-dasharray:none;stroke-opacity:1"
       d="M 133.13776,15.12929 C 97.205691,1.7020452 35.913058,1.7613726 19.459954,59.441793 71.22849,54.675814 122.54725,65.245065 135.02891,75.26822 c 12.48167,10.023155 10.21228,36.87764 7.94289,48.98107 -2.2694,12.10344 9.559,13.35563 18.72249,1.70205 17.39869,-22.12659 29.50212,-93.801598 -28.55653,-110.82205 z"
       id="path63"
       sodipodi:nodetypes="ccsssc" /><path
       style="opacity:1;fill:#6e1c1c;fill-opacity:1;stroke:none;stroke-width:1;stroke-linecap:square;stroke-linejoin:round;stroke-dasharray:none;stroke-opacity:1"
       d="M 141.26975,83.967562 C 87.182536,57.113071 35.175601,67.325343 24.774213,73.377059 11.346968,71.107665 2.9882005,57.968803 20.235426,52.385169 c 26.287142,-8.510227 71.89101,-8.177882 93.450254,4.303782 21.55924,12.481665 27.58407,27.278611 27.58407,27.278611 z"
       id="path64"
       sodipodi:nodetypes="ccssc" /><ellipse
       style="opacity:1;fill:#3f2c1f;fill-opacity:1;stroke:none;stroke-width:1.12594;stroke-linecap:square;stroke-linejoin:round;stroke-dasharray:none;stroke-opacity:1"
       id="path65"
       cx="105.47534"
       cy="61.159607"
       rx="4.6176538"
       ry="6.414257"
       transform="rotate(11.339994)" /><ellipse
       style="opacity:1;fill:#3f2c1f;fill-opacity:1;stroke:none;stroke-width:1.05092;stroke-linecap:square;stroke-linejoin:round;stroke-dasharray:none;stroke-opacity:1"
       id="path66"
       cx="63.196377"
       cy="70.169884"
       rx="4.9861174"
       ry="6.7827201"
       transform="rotate(11.564544)" /><path
       style="opacity:1;fill:none;fill-opacity:1;stroke:#3f2c1f;stroke-width:4;stroke-linecap:square;stroke-linejoin:round;stroke-dasharray:none;stroke-opacity:1"
       d="m 82.454633,95.503646 c -5.8626,10.495944 -11.819759,13.616364 -17.587801,1.418371 -5.768041,13.332693 -9.455805,6.808183 -13.61636,-0.851023"
       id="path67"
       sodipodi:nodetypes="ccc" /><path
       style="opacity:1;fill:none;fill-opacity:1;stroke:#7d6d62;stroke-width:4;stroke-linecap:round;stroke-linejoin:round;stroke-dasharray:none;stroke-opacity:1"
       d="M 96.070994,93.139694 120.75065,88.97914"
       id="path68" /><path
       style="opacity:1;fill:none;fill-opacity:1;stroke:#7d6d62;stroke-width:4;stroke-linecap:round;stroke-linejoin:round;stroke-dasharray:none;stroke-opacity:1"
       d="m 96.260111,101.17713 27.705509,6.33539"
       id="path69" /><path
       style="opacity:1;fill:none;fill-opacity:1;stroke:#7d6d62;stroke-width:4;stroke-linecap:round;stroke-linejoin:round;stroke-dasharray:none;stroke-opacity:1"
       d="M 40.376294,95.31453 19.478961,91.91044"
       id="path70" /><path
       style="opacity:1;fill:none;fill-opacity:1;stroke:#7d6d62;stroke-width:4;stroke-linecap:round;stroke-linejoin:round;stroke-dasharray:none;stroke-opacity:1"
       d="m 39.808946,103.06829 -23.355843,5.48437"
       id="path71" /><path
       style="opacity:1;fill:#ffd770;fill-opacity:1;stroke:#3f2c1f;stroke-width:2;stroke-linecap:square;stroke-linejoin:round;stroke-dasharray:none;stroke-opacity:1"
       d="m 27.421839,113.28056 c 4.682016,7.49188 5.138583,16.83134 -0.156669,19.8572 -5.295251,3.02585 -9.543645,4.34017 -14.64978,-4.73741 -5.1061356,-9.07757 1.010475,-16.16665 3.279869,-17.67958"
       id="path72"
       sodipodi:nodetypes="cssc" /></g><g
     inkscape:groupmode="layer"
     id="vertices"
     inkscape:label="vertices"
     style="display:none"
     transform="translate(-8.9394221,-7.8263392)"><path
       style="opacity:1;fill:none;fill-opacity:1;stroke:#3f2c1f;stroke-width:1;stroke-linecap:round;stroke-linejoin:round;stroke-dasharray:none;stroke-opacity:1"
       d="M 7.7528178,113.49898 24.908923,172.12524 156.07817,173.26259 178.7893,81.462375 165.59693,32.199375 119.71331,8.1608914 57.51521,11.669819 19.105649,47.79275 Z"
       id="path13"
       sodipodi:nodetypes="ccccccccc" /></g></svg>
