<?xml version="1.0" encoding="UTF-8" standalone="no"?>
<!-- Created with Inkscape (http://www.inkscape.org/) -->

<svg
   width="171.90506"
   height="152.39546"
   viewBox="0 0 171.90506 152.39546"
   version="1.1"
   id="svg1"
   xml:space="preserve"
   inkscape:version="1.4 (86a8ad7, 2024-10-11)"
   sodipodi:docname="fight.svg"
   xmlns:inkscape="http://www.inkscape.org/namespaces/inkscape"
   xmlns:sodipodi="http://sodipodi.sourceforge.net/DTD/sodipodi-0.dtd"
   xmlns:xlink="http://www.w3.org/1999/xlink"
   xmlns="http://www.w3.org/2000/svg"
   xmlns:svg="http://www.w3.org/2000/svg"><sodipodi:namedview
     id="namedview1"
     pagecolor="#ffffff"
     bordercolor="#000000"
     borderopacity="0.25"
     inkscape:showpageshadow="2"
     inkscape:pageopacity="0.0"
     inkscape:pagecheckerboard="0"
     inkscape:deskcolor="#d1d1d1"
     inkscape:document-units="px"
     inkscape:zoom="2.8284271"
     inkscape:cx="50.027805"
     inkscape:cy="117.91006"
     inkscape:window-width="1920"
     inkscape:window-height="1009"
     inkscape:window-x="-8"
     inkscape:window-y="-8"
     inkscape:window-maximized="1"
     inkscape:current-layer="svg1" /><defs
     id="defs1"><linearGradient
       id="linearGradient32"
       inkscape:collect="always"><stop
         style="stop-color:#ffdd70;stop-opacity:1;"
         offset="0"
         id="stop32" /><stop
         style="stop-color:#ffcf70;stop-opacity:1;"
         offset="1"
         id="stop33" /></linearGradient><linearGradient
       id="linearGradient12"
       inkscape:collect="always"><stop
         style="stop-color:#ffdd70;stop-opacity:1;"
         offset="0"
         id="stop12" /><stop
         style="stop-color:#ffd270;stop-opacity:1;"
         offset="1"
         id="stop13" /></linearGradient><linearGradient
       inkscape:collect="always"
       xlink:href="#linearGradient12"
       id="linearGradient13"
       x1="35.129822"
       y1="57.178661"
       x2="136.90422"
       y2="170.21059"
       gradientUnits="userSpaceOnUse" /><linearGradient
       inkscape:collect="always"
       xlink:href="#linearGradient32"
       id="linearGradient33"
       x1="104.06485"
       y1="17.536886"
       x2="104.06485"
       y2="163.11584"
       gradientUnits="userSpaceOnUse" /></defs><g
     inkscape:groupmode="layer"
     id="layer5"
     inkscape:label="image_old"
     style="display:none"
     transform="translate(-4.9492879,-14.128637)"><path
       style="opacity:1;fill:#e6e6e6;fill-opacity:1;stroke:none;stroke-linejoin:round"
       d="M 32.717776,59.007883 C 29.182242,52.113592 24.662951,44.828058 25.723611,29.448485 26.131557,23.533265 46.492271,7.9549513 52.149125,7.7781746 c 5.656854,-0.1767767 16.970563,4.5961944 19.79899,4.5961944 2.828427,0 35.178565,-2.298097 40.128305,-0.53033 4.94975,1.767767 19.09189,14.318912 22.8042,16.263456 3.71231,1.944543 30.75914,15.379572 32.35013,18.384776 1.59099,3.005204 2.47488,27.854446 0.35356,31.743533 -2.12132,3.889088 -14.31891,17.753942 -17.14734,17.930718 C 147.60854,96.343299 32.717776,59.007883 32.717776,59.007883 Z"
       id="path3"
       sodipodi:nodetypes="cssssssssc" /><path
       style="display:inline;opacity:1;fill:url(#linearGradient13);stroke:none;stroke-linejoin:round"
       d="M 35.75,53.875 C 23.75,73.375 10.2727,89.500208 10,118 c -0.1035534,10.82233 -0.5590304,45.23057 10.25,49.75 7.572681,3.16626 42,6 63.25,5.75 21.25,-0.25 64.30589,0.15447 72.75,-4 8.82322,-4.34099 7.15533,-18.69365 -1.94454,-27.16421 C 155.80178,119.56103 155.75,112.375 150.25,77.875 127.07758,65.566155 74.474593,53.742348 35.75,53.875 Z"
       id="path1"
       sodipodi:nodetypes="cssssccc" /><path
       style="opacity:1;fill:#ffffff;fill-opacity:1;stroke:none;stroke-linejoin:round"
       d="m 31.410795,60.414737 c 1.944544,-12.020816 4.121321,-13.745689 5.889088,-22.230971 11.313708,-2.12132 38.53732,-3.358757 64.877047,3.889087 24.697,6.79582 46.66905,20.152544 49.49747,23.511301 -0.88388,6.363961 -0.24632,16.836679 -0.24632,16.836679 C 140.99826,77.117532 93.691649,64.523494 77.074639,62.402174 60.45763,60.280853 37.421203,59.884407 31.410795,60.414737 Z"
       id="path2"
       sodipodi:nodetypes="ccsccsc" /><ellipse
       style="opacity:1;fill:#3f2c1f;fill-opacity:1;stroke:none;stroke-width:1.26222;stroke-linejoin:round"
       id="path4"
       cx="55.486767"
       cy="87.986588"
       rx="4.6542315"
       ry="6.4397717"
       transform="matrix(0.99595279,0.08987787,-0.09142887,0.99581161,0,0)" /><ellipse
       style="opacity:1;fill:#3f2c1f;fill-opacity:1;stroke:none;stroke-width:1.05219;stroke-linejoin:round"
       id="path5"
       cx="106.19505"
       cy="75.982391"
       rx="4.5240135"
       ry="6.4572597"
       transform="matrix(0.98696685,0.16092369,-0.16640765,0.98605704,0,0)" /><path
       style="opacity:1;fill:none;stroke:#3f2c1f;stroke-width:4;stroke-linejoin:round;stroke-dasharray:none;stroke-opacity:1"
       d="M 49.375,105.25 C 51.25,117.375 60.75,120.875 64,109.625 70.125,119.25 77.125,122 85.125,103"
       id="path6"
       sodipodi:nodetypes="ccc" /><path
       style="opacity:1;fill:none;stroke:#7d6d62;stroke-width:4;stroke-linecap:round;stroke-linejoin:round;stroke-dasharray:none;stroke-opacity:1"
       d="M 38.714096,100.40916 12.551145,96.343299"
       id="path11" /><path
       style="fill:none;stroke:#7d6d62;stroke-width:4;stroke-linecap:round;stroke-linejoin:round;stroke-dasharray:none;stroke-opacity:1"
       d="m 37.490288,108.36479 -26.414063,1.82442"
       id="path11-4" /><path
       style="opacity:1;fill:#dcba6c;fill-opacity:1;stroke:none;stroke-linejoin:round"
       d="m 17.412505,117.82167 c -1.414214,-5.39169 -3.071716,-16.05165 9.104,-21.920312 5.551313,-2.67572 12.629699,-1.672895 15.291183,-0.265166 -4.507805,5.303298 -6.135407,12.658378 -4.456028,16.459078 3.738512,8.46085 8.079951,10.41098 8.079951,10.41098 z"
       id="path12"
       sodipodi:nodetypes="cscscc" /><path
       style="opacity:1;fill:none;stroke:#7d6d62;stroke-width:4;stroke-linecap:round;stroke-linejoin:round;stroke-dasharray:none;stroke-opacity:1"
       d="m 101.6466,105.18213 31.64303,-2.82842"
       id="path9" /><path
       style="opacity:1;fill:#2b3239;fill-opacity:1;stroke:none;stroke-linejoin:round"
       d="m 105.75,132 c -13,-2.375 -84,-13.75 -90.25,-14.125 1.625,5.75 6.5,17.875 6.5,17.875 6,2.375 54.25,10.75 61.75,10.125 4.75,-5 11.125,-11.375 11.125,-11.375 L 105,135.875 Z"
       id="path8" /><path
       style="opacity:1;fill:none;stroke:#3f2c1f;stroke-width:2;stroke-linejoin:round;stroke-dasharray:none;stroke-opacity:1"
       d="m 108.25,127 c -5.625,6.875 -4.64704,17.6685 4.125,19.75 7.375,1.75 19.25,0.125 27.375,-17.75"
       id="path7"
       sodipodi:nodetypes="csc" /><path
       style="opacity:1;fill:none;stroke:#7d6d62;stroke-width:4;stroke-linecap:round;stroke-linejoin:round;stroke-dasharray:none;stroke-opacity:1"
       d="m 100.76272,113.84419 35.00178,3.88909"
       id="path10" /></g><g
     inkscape:groupmode="layer"
     id="layer1"
     inkscape:label="image"
     style="display:inline"
     transform="translate(-4.9492879,-14.128637)"><path
       style="display:inline;opacity:1;fill:url(#linearGradient33);fill-opacity:1;stroke:none;stroke-width:1;stroke-linecap:round;stroke-linejoin:round;stroke-dasharray:none;stroke-opacity:1"
       d="M 47.552932,18.384776 C 37.209851,32.857957 40.831911,63.240987 41.012193,63.286057 29.490282,81.653351 29.336515,137.73507 34.648232,147.78532 c 6.500722,12.29995 16.287616,18.43874 60.45763,18.73833 7.853298,0.0533 63.994218,-4.60409 68.942918,-5.48008 9.9924,-1.7688 18.38477,-13.25825 8.13172,-21.03643 -0.35355,-21.2132 1.76777,-48.436812 -14.49569,-84.852811 0,-16.617009 -1.94454,-34.648232 -6.36396,-41.012193 -8.832,-0.405843 -30.30702,8.434022 -37.65344,13.788582 -17.147334,-1.060661 -34.117897,2.12132 -34.117897,2.12132 C 67.422602,18.207999 48.165061,18.384776 47.552932,18.384776 Z"
       id="path14"
       sodipodi:nodetypes="ccssscccccc" /><path
       style="opacity:1;fill:#ffdd70;fill-opacity:1;stroke:none;stroke-width:1;stroke-linecap:round;stroke-linejoin:round;stroke-dasharray:none;stroke-opacity:1"
       d="M 35.001786,99.171726 C 21.38998,98.818172 5.0465611,98.45951 4.9497475,109.77832 c -0.1061741,12.41319 18.2079995,11.13694 27.5771645,11.49049 9.369165,0.35356 2.474874,-22.097084 2.474874,-22.097084 z"
       id="path16"
       sodipodi:nodetypes="cssc" /><path
       style="opacity:1;fill:#f3f3f3;fill-opacity:1;stroke:none;stroke-width:1;stroke-linecap:round;stroke-linejoin:round;stroke-dasharray:none;stroke-opacity:1"
       d="M 167.75,79.75 C 150.87679,81.454058 92.630988,96.873629 79.19596,102.53048 62.04862,94.398755 32.526912,86.267027 32.526912,86.267027 28.710063,102.64515 29.084375,135.33371 32.173359,147.25499 71.61391,161.78797 181.00388,143.81598 173.41794,139.47681 174.83518,128.94601 173.98344,95.459304 167.75,79.75 Z"
       id="path17"
       sodipodi:nodetypes="cccccc" /><path
       style="opacity:1;fill:#1b193a;fill-opacity:1;stroke:none;stroke-width:1;stroke-linecap:round;stroke-linejoin:round;stroke-dasharray:none;stroke-opacity:1"
       d="M 174.92054,134.52707 C 155.76275,132.32089 136.1005,131.62807 116,132.25 L 109.19822,145.36612 86.125,134.375 l -0.25,3.875 -18.25,-0.625 -0.125,-2.375 -20.125,8 -5.875,-11 H 28.625 L 28.5,119.375 68,119.625 v -2.5 l 18.25,0.5 0.25,2.375 c 30.38164,-0.025 62.03351,-1.2047 89,1.875 z"
       id="path18"
       sodipodi:nodetypes="ccccccccccccccccc" /><ellipse
       style="opacity:1;fill:#3f2c1f;fill-opacity:1;stroke:none;stroke-width:1.13475;stroke-linecap:round;stroke-linejoin:round;stroke-dasharray:none;stroke-opacity:1"
       id="path19"
       cx="69.469406"
       cy="55.204414"
       rx="4.9450727"
       ry="6.6400685"
       transform="matrix(0.98737238,0.15841646,-0.15478534,0.98794813,0,0)" /><ellipse
       style="opacity:1;fill:#3f2c1f;fill-opacity:1;stroke:none;stroke-width:1.1676;stroke-linecap:round;stroke-linejoin:round;stroke-dasharray:none;stroke-opacity:1"
       id="path20"
       cx="115.72786"
       cy="39.973221"
       rx="5.0591092"
       ry="6.8041692"
       transform="matrix(0.97552878,0.21987176,-0.21537527,0.97653136,0,0)" /><path
       style="opacity:1;fill:none;fill-opacity:1;stroke:#3f2c1f;stroke-width:4;stroke-linecap:square;stroke-linejoin:round;stroke-dasharray:none;stroke-opacity:1"
       d="M 95.25,80 C 90.125,91.75 83.5,92.625 77.375,82 73.75,90.125 69.5,94.75 63.75,80.125"
       id="path21"
       sodipodi:nodetypes="ccc" /><path
       style="opacity:1;fill:none;fill-opacity:1;stroke:#7d6d62;stroke-width:4;stroke-linecap:round;stroke-linejoin:round;stroke-dasharray:none;stroke-opacity:1"
       d="M 52.25,79.125 30.375,75.75"
       id="path22" /><path
       style="opacity:1;fill:none;fill-opacity:1;stroke:#7d6d62;stroke-width:4;stroke-linecap:round;stroke-linejoin:round;stroke-dasharray:none;stroke-opacity:1"
       d="M 52.625,86.75 29,89"
       id="path23" /><path
       style="opacity:1;fill:none;fill-opacity:1;stroke:#7d6d62;stroke-width:4;stroke-linecap:round;stroke-linejoin:round;stroke-dasharray:none;stroke-opacity:1"
       d="m 110.5,77 24.625,-3.375"
       id="path24" /><path
       style="opacity:1;fill:none;fill-opacity:1;stroke:#7d6d62;stroke-width:4;stroke-linecap:round;stroke-linejoin:round;stroke-dasharray:none;stroke-opacity:1"
       d="M 110.125,85.375 136,88.625"
       id="path25" /><path
       style="opacity:1;fill:none;fill-opacity:1;stroke:#aeaeae;stroke-width:1;stroke-linecap:round;stroke-linejoin:round;stroke-dasharray:none;stroke-opacity:1"
       d="m 34.117903,98.111066 26.16295,10.960154"
       id="path26"
       sodipodi:nodetypes="cc" /><path
       style="opacity:1;fill:none;fill-opacity:1;stroke:#aeaeae;stroke-width:1;stroke-linecap:round;stroke-linejoin:round;stroke-dasharray:none;stroke-opacity:1"
       d="m 77.074639,103.41437 c -3.71231,1.23743 -33.057242,15.02602 -33.057242,15.02602"
       id="path27" /><path
       style="opacity:1;fill:none;fill-opacity:1;stroke:#aeaeae;stroke-width:1;stroke-linecap:round;stroke-linejoin:round;stroke-dasharray:none;stroke-opacity:1"
       d="M 167.40753,93.691649 C 145.39546,95.071451 86.916839,113.24818 81.140504,115.96551"
       id="path28"
       sodipodi:nodetypes="cc" /><path
       style="opacity:1;fill:none;fill-opacity:1;stroke:#34357a;stroke-width:1;stroke-linecap:round;stroke-linejoin:round;stroke-dasharray:none;stroke-opacity:1"
       d="m 86.797358,121.44559 -0.353554,11.66726"
       id="path29" /><path
       style="display:inline;opacity:1;fill:#ffdd70;fill-opacity:1;stroke:none;stroke-width:1;stroke-linecap:round;stroke-linejoin:round;stroke-dasharray:none;stroke-opacity:1"
       d="m 133.1824,98.503833 c -12.0726,-0.880204 -27.84494,-1.169417 -32.02692,0.857233 -3.727381,1.806344 -5.672452,16.066514 0.14125,19.738334 3.35875,2.12132 17.96015,2.27297 27.50609,2.09619 9.54594,-0.17678 11.0778,-3.48744 11.64366,-10.0481 0.26793,-5.37226 -1.8683,-12.559018 -7.26408,-12.643657 z"
       id="path15"
       sodipodi:nodetypes="cssscc" /><path
       style="opacity:1;fill:none;fill-opacity:1;stroke:#34357a;stroke-width:1;stroke-linecap:round;stroke-linejoin:round;stroke-dasharray:none;stroke-opacity:1"
       d="m 67.705474,121.26881 -0.176776,12.55115"
       id="path30" /><path
       style="opacity:1;fill:none;fill-opacity:1;stroke:#34357a;stroke-width:1;stroke-linecap:round;stroke-linejoin:round;stroke-dasharray:none;stroke-opacity:1"
       d="m 88.565124,121.97592 25.279066,9.72272"
       id="path31" /><path
       style="opacity:1;fill:none;fill-opacity:1;stroke:#34357a;stroke-width:1;stroke-linecap:round;stroke-linejoin:round;stroke-dasharray:none;stroke-opacity:1"
       d="M 65.937707,121.09204 42.77996,130.99153"
       id="path32" /></g><g
     inkscape:groupmode="layer"
     id="vertices"
     inkscape:label="vertices"
     style="display:none"
     transform="translate(-4.9492879,-14.128637)"><path
       style="opacity:1;fill:none;fill-opacity:1;stroke:#3f2c1f;stroke-width:1;stroke-linecap:round;stroke-linejoin:round;stroke-dasharray:none;stroke-opacity:1"
       d="M 5.232233,111.20711 43.491378,162.42893 174.84924,159.95406 175.3033,105.66474 152.22971,14.010408 48.792893,18.374369 Z"
       id="path13"
       sodipodi:nodetypes="ccccccc" /></g></svg>
