<?xml version="1.0" encoding="UTF-8" standalone="no"?>
<!-- Created with Inkscape (http://www.inkscape.org/) -->

<svg
   width="145.12704"
   height="163.60458"
   viewBox="0 0 145.12704 163.60458"
   version="1.1"
   id="svg1"
   xml:space="preserve"
   inkscape:version="1.4 (86a8ad7, 2024-10-11)"
   sodipodi:docname="fishing.svg"
   xmlns:inkscape="http://www.inkscape.org/namespaces/inkscape"
   xmlns:sodipodi="http://sodipodi.sourceforge.net/DTD/sodipodi-0.dtd"
   xmlns:xlink="http://www.w3.org/1999/xlink"
   xmlns="http://www.w3.org/2000/svg"
   xmlns:svg="http://www.w3.org/2000/svg"><sodipodi:namedview
     id="namedview1"
     pagecolor="#ffffff"
     bordercolor="#000000"
     borderopacity="0.25"
     inkscape:showpageshadow="2"
     inkscape:pageopacity="0.0"
     inkscape:pagecheckerboard="0"
     inkscape:deskcolor="#d1d1d1"
     inkscape:document-units="px"
     inkscape:zoom="2.8284271"
     inkscape:cx="107.30345"
     inkscape:cy="71.594562"
     inkscape:window-width="1920"
     inkscape:window-height="1009"
     inkscape:window-x="-8"
     inkscape:window-y="-8"
     inkscape:window-maximized="1"
     inkscape:current-layer="vertices" /><defs
     id="defs1"><linearGradient
       id="linearGradient56"
       inkscape:collect="always"><stop
         style="stop-color:#ffde70;stop-opacity:1;"
         offset="0"
         id="stop56" /><stop
         style="stop-color:#ffd270;stop-opacity:1;"
         offset="1"
         id="stop57" /></linearGradient><linearGradient
       inkscape:collect="always"
       xlink:href="#linearGradient56"
       id="linearGradient57"
       x1="108.64988"
       y1="47.482861"
       x2="103.95551"
       y2="181.91214"
       gradientUnits="userSpaceOnUse" /></defs><g
     inkscape:groupmode="layer"
     id="layer1"
     inkscape:label="image"
     style="display:inline"
     transform="translate(-27.930718,-8.4852813)"><path
       style="opacity:1;fill:url(#linearGradient57);fill-opacity:1;stroke:none;stroke-width:1;stroke-linecap:round;stroke-linejoin:round;stroke-dasharray:none;stroke-opacity:1"
       d="m 45.75,160.5 c 8.455186,17.55186 110.48587,11.80684 120.7019,4.60355 8.5,-7.5 7.94975,-11.56066 3.12132,-20.38388 C 176.00231,128.18942 171.89969,83.063439 166.25,76 131.30028,54.453513 98.744969,56.879712 62.5,58 41.694468,90.654649 32.424504,120.09032 45.75,160.5 Z"
       id="path44"
       sodipodi:nodetypes="cccccc" /><path
       style="opacity:1;fill:#9bcbf4;fill-opacity:1;stroke:none;stroke-width:1;stroke-linecap:round;stroke-linejoin:round;stroke-dasharray:none;stroke-opacity:1"
       d="M 169.75,81 C 170.67023,71.672896 163.46871,45.621997 159.68934,43.03033 134.12972,21.933279 103.787,22.78945 79.75,27.25 71.532404,38.01929 64.752797,49.069911 60.5,60.5 97.499822,61.501776 134.68276,60.672353 169.75,81 Z"
       id="path45"
       sodipodi:nodetypes="ccccc" /><path
       style="opacity:1;fill:#195b89;fill-opacity:1;stroke:none;stroke-width:1;stroke-linecap:round;stroke-linejoin:round;stroke-dasharray:none;stroke-opacity:1"
       d="M 57.616117,65.21967 C 51.970023,63.154827 42.468398,50.887512 43.5,48.5 54.857429,37.435707 87.61163,34.504886 131.26647,46.234835 137.08078,48.504597 151.72259,71.163102 150.375,71.5 121.48571,64.462475 74.65361,57.514557 57.616117,65.21967 Z"
       id="path46"
       sodipodi:nodetypes="ccccc" /><path
       style="opacity:1;fill:none;fill-opacity:1;stroke:#7d6d62;stroke-width:4;stroke-linecap:round;stroke-linejoin:round;stroke-dasharray:none;stroke-opacity:1"
       d="m 119.8546,90.156115 24.57196,-3.889088"
       id="path47" /><path
       style="opacity:1;fill:none;fill-opacity:1;stroke:#7d6d62;stroke-width:4;stroke-linecap:round;stroke-linejoin:round;stroke-dasharray:none;stroke-opacity:1"
       d="M 118.97072,97.403959 145.664,103.41437"
       id="path48" /><path
       style="opacity:1;fill:none;fill-opacity:1;stroke:#7d6d62;stroke-width:4;stroke-linecap:round;stroke-linejoin:round;stroke-dasharray:none;stroke-opacity:1"
       d="M 59.043416,90.686445 38.714096,87.150911"
       id="path49" /><path
       style="opacity:1;fill:none;fill-opacity:1;stroke:#7d6d62;stroke-width:4;stroke-linecap:round;stroke-linejoin:round;stroke-dasharray:none;stroke-opacity:1"
       d="m 60.811183,99.52528 -24.395184,3.18198"
       id="path50" /><path
       style="opacity:1;fill:none;fill-opacity:1;stroke:#3f2c1f;stroke-width:4;stroke-linecap:square;stroke-linejoin:round;stroke-dasharray:none;stroke-opacity:1"
       d="m 105.88924,92.277435 c -3.53553,11.844035 -10.960155,9.545935 -16.793786,2.65165 -4.949747,9.899495 -7.424621,6.540735 -12.551145,-2.474874"
       id="path51"
       sodipodi:nodetypes="ccc" /><ellipse
       style="opacity:1;fill:#3f2c1f;fill-opacity:1;stroke:none;stroke-width:1.01753;stroke-linecap:round;stroke-linejoin:round;stroke-dasharray:none;stroke-opacity:1"
       id="path52"
       cx="124.74299"
       cy="59.801758"
       rx="4.3662357"
       ry="5.9912357"
       transform="rotate(8.7088269)" /><ellipse
       style="opacity:1;fill:#3f2c1f;fill-opacity:1;stroke:none;stroke-width:1.05186;stroke-linecap:round;stroke-linejoin:round;stroke-dasharray:none;stroke-opacity:1"
       id="path53"
       cx="93.405518"
       cy="52.985291"
       rx="4.3490682"
       ry="5.7240682"
       transform="rotate(17.699677)" /><path
       style="opacity:1;fill:#19110c;fill-opacity:1;stroke:none;stroke-width:1;stroke-linecap:round;stroke-linejoin:round;stroke-dasharray:none;stroke-opacity:1"
       d="M 82.201163,121.26882 C 68.797576,87.045636 43.384497,35.553517 27.930718,8.4852813 48.238907,29.227082 69.628809,76.83894 88.034794,117.37973 Z"
       id="path54"
       sodipodi:nodetypes="cccc" /><path
       style="display:inline;opacity:1;fill:none;fill-opacity:1;stroke:#7d6d62;stroke-width:2;stroke-linecap:round;stroke-linejoin:round;stroke-dasharray:none;stroke-opacity:1"
       d="m 74.439232,131.92351 c 9.369164,-4.77297 24.54635,-0.13456 26.293158,8.93351 1.78615,9.27229 -17.525992,19.22712 -27.546838,6.39797"
       id="path56"
       sodipodi:nodetypes="csc" /><path
       style="opacity:1;fill:#ffd270;fill-opacity:1;stroke:#7d6d62;stroke-width:2;stroke-linecap:round;stroke-linejoin:round;stroke-dasharray:none;stroke-opacity:1"
       d="m 97.934289,115.96551 c -13.435029,-2.82842 -21.648768,2.25293 -22.01498,10.0245 -0.505928,10.73656 14.297927,17.50655 30.564601,8.44239"
       id="path55"
       sodipodi:nodetypes="csc" /></g><g
     inkscape:groupmode="layer"
     id="vertices"
     inkscape:label="vertices"
     style="display:none"
     transform="translate(-16.263456,-9.8994949)"><path
       style="opacity:1;fill:none;fill-opacity:1;stroke:#3f2c1f;stroke-width:1;stroke-linecap:round;stroke-linejoin:round;stroke-dasharray:none;stroke-opacity:1"
       d="M 15.838835,10.09084 29.349242,170.56066 162.12132,169.14645 155.76525,51.133514 115.96804,26.152543 Z"
       id="path13"
       sodipodi:nodetypes="cccccc" /></g></svg>
