<?xml version="1.0" encoding="UTF-8" standalone="no"?>
<!-- Created with Inkscape (http://www.inkscape.org/) -->

<svg
   width="159.67625"
   height="163.63638"
   viewBox="0 0 159.67625 163.63638"
   version="1.1"
   id="svg1"
   xml:space="preserve"
   inkscape:version="1.4 (86a8ad7, 2024-10-11)"
   sodipodi:docname="normal.svg"
   xmlns:inkscape="http://www.inkscape.org/namespaces/inkscape"
   xmlns:sodipodi="http://sodipodi.sourceforge.net/DTD/sodipodi-0.dtd"
   xmlns:xlink="http://www.w3.org/1999/xlink"
   xmlns="http://www.w3.org/2000/svg"
   xmlns:svg="http://www.w3.org/2000/svg"><sodipodi:namedview
     id="namedview1"
     pagecolor="#ffffff"
     bordercolor="#000000"
     borderopacity="0.25"
     inkscape:showpageshadow="2"
     inkscape:pageopacity="0.0"
     inkscape:pagecheckerboard="0"
     inkscape:deskcolor="#d1d1d1"
     inkscape:document-units="px"
     inkscape:zoom="4.0668164"
     inkscape:cx="74.136615"
     inkscape:cy="76.59554"
     inkscape:window-width="1920"
     inkscape:window-height="1009"
     inkscape:window-x="-8"
     inkscape:window-y="-8"
     inkscape:window-maximized="1"
     inkscape:current-layer="layer1" /><defs
     id="defs1"><linearGradient
       id="linearGradient11"
       inkscape:collect="always"><stop
         style="stop-color:#ffdd70;stop-opacity:1;"
         offset="0"
         id="stop11" /><stop
         style="stop-color:#ffcf70;stop-opacity:1;"
         offset="1"
         id="stop12" /></linearGradient><linearGradient
       inkscape:collect="always"
       xlink:href="#linearGradient11"
       id="linearGradient12"
       x1="48.853882"
       y1="22.903252"
       x2="132.26044"
       y2="156.38164"
       gradientUnits="userSpaceOnUse" /></defs><g
     inkscape:label="Layer 1"
     inkscape:groupmode="layer"
     id="layer1"
     style="display:inline"
     transform="translate(-11.859746,-7.8242543)"><path
       style="opacity:1;fill:url(#linearGradient12);fill-opacity:1;stroke:none;stroke-width:2;stroke-linejoin:round;stroke-opacity:1"
       d="m 76.50382,21.560167 c 15.822381,-2.955829 34.94834,-0.347744 37.0348,1.043234 8.86749,-6.08553 20.52205,-11.781129 27.86688,-13.6042286 5.7851,6.4929386 9.88601,15.7780716 14.75443,38.7292186 13.79259,53.198049 14.6547,68.219729 8.1916,94.841789 7.84896,9.25018 7.90437,15.71158 6.45799,18.60434 -1.9126,3.82519 -8.13082,5.50715 -15.88928,7.48162 -8.37945,2.13252 -52.1617,2.95584 -63.985018,2.78197 C 79.111905,171.26423 42.250974,171.78585 24.168253,157.52832 10.258467,146.05275 11.823318,128.49164 11.99719,114.06024 12.171062,99.628838 15.300764,76.329948 26.776337,58.594971 29.732166,45.902292 34.774464,19.821444 49.031994,7.8242543 59.116588,8.6936159 70.766034,15.474636 76.50382,21.560167 Z"
       id="path1"
       sodipodi:nodetypes="cccccssscsccc" /><ellipse
       style="opacity:1;fill:#3f2c1f;fill-opacity:1;stroke:none;stroke-width:2.5951;stroke-linejoin:round;stroke-opacity:1"
       id="path2"
       cx="110.31618"
       cy="47.91441"
       rx="4.8102851"
       ry="6.7244382"
       transform="matrix(0.98699398,0.16075721,-0.18131246,0.98342554,0,0)" /><ellipse
       style="opacity:1;fill:#3f2c1f;fill-opacity:1;stroke:none;stroke-width:2.36868;stroke-linejoin:round;stroke-opacity:1"
       id="path3"
       cx="64.16227"
       cy="50.738598"
       rx="4.5841146"
       ry="7.0649929"
       transform="matrix(0.96863618,0.24848329,-0.19771292,0.98025997,0,0)" /><path
       style="opacity:1;fill:none;stroke:#3f2c1f;stroke-width:4;stroke-linejoin:round;stroke-dasharray:none"
       d="M 90.587478,81.198372 C 82.937096,94.586541 76.156075,91.630712 71.461523,84.154202 64.50663,92.326201 62.594034,94.760414 56.334631,82.241607"
       id="path4"
       sodipodi:nodetypes="ccc" /><path
       style="opacity:1;fill:none;stroke:#7d6d62;stroke-width:4;stroke-linecap:round;stroke-linejoin:round;stroke-dasharray:none;stroke-opacity:1"
       d="m 104.67114,78.76416 27.81957,-5.042297"
       id="path5" /><path
       style="opacity:1;fill:none;stroke:#7d6d62;stroke-width:4;stroke-linecap:round;stroke-linejoin:round;stroke-dasharray:none;stroke-opacity:1"
       d="m 104.32339,86.762287 28.16732,5.390042"
       id="path6" /><path
       style="opacity:1;fill:none;stroke:#7d6d62;stroke-width:4;stroke-linecap:round;stroke-linejoin:round;stroke-dasharray:none;stroke-opacity:1"
       d="M 45.554547,78.590288 20.690806,75.286714"
       id="path7" /><path
       style="opacity:1;fill:none;stroke:#7d6d62;stroke-width:4;stroke-linecap:round;stroke-linejoin:round;stroke-dasharray:none;stroke-opacity:1"
       d="M 45.902292,86.762287 19.995317,90.239733"
       id="path8" /><path
       style="opacity:1;fill:none;stroke:#896404;stroke-width:2;stroke-linejoin:round;stroke-opacity:1"
       d="m 108.32245,106.93148 c -15.30076,21.21242 2.43422,19.99531 17.38724,15.47463"
       id="path9" /><path
       style="opacity:1;fill:none;stroke:#896404;stroke-width:2;stroke-linejoin:round;stroke-opacity:1"
       d="m 40.164506,105.01888 c 13.909785,15.12689 5.737786,23.64664 -12.171063,17.21336"
       id="path10"
       sodipodi:nodetypes="cc" /></g><g
     inkscape:groupmode="layer"
     id="vertices"
     inkscape:label="vertices"
     style="display:none"
     transform="translate(-11.859746,-7.8242543)"><path
       style="opacity:1;fill:none;fill-opacity:1;stroke:#000000;stroke-width:1;stroke-linejoin:round;stroke-dasharray:none;stroke-opacity:1"
       d="M 48.686733,6.6390999 16.474804,71.554744 11.556952,144.58484 36.146211,165.23982 148.02734,171.14124 168.92821,160.32197 166.96107,39.342814 156.38769,11.311059 Z"
       id="path11"
       sodipodi:nodetypes="ccccccccc" /></g></svg>
