<?xml version="1.0" encoding="UTF-8" standalone="no"?>
<!-- Created with Inkscape (http://www.inkscape.org/) -->

<svg
   width="165.7735"
   height="154.60149"
   viewBox="0 0 165.7735 154.60149"
   version="1.1"
   id="svg1"
   xml:space="preserve"
   inkscape:version="1.4 (86a8ad7, 2024-10-11)"
   sodipodi:docname="reading.svg"
   xmlns:inkscape="http://www.inkscape.org/namespaces/inkscape"
   xmlns:sodipodi="http://sodipodi.sourceforge.net/DTD/sodipodi-0.dtd"
   xmlns:xlink="http://www.w3.org/1999/xlink"
   xmlns="http://www.w3.org/2000/svg"
   xmlns:svg="http://www.w3.org/2000/svg"><sodipodi:namedview
     id="namedview1"
     pagecolor="#ffffff"
     bordercolor="#000000"
     borderopacity="0.25"
     inkscape:showpageshadow="2"
     inkscape:pageopacity="0.0"
     inkscape:pagecheckerboard="0"
     inkscape:deskcolor="#d1d1d1"
     inkscape:document-units="px"
     inkscape:zoom="2.0000001"
     inkscape:cx="-12.249999"
     inkscape:cy="108.24999"
     inkscape:window-width="1920"
     inkscape:window-height="1009"
     inkscape:window-x="-8"
     inkscape:window-y="-8"
     inkscape:window-maximized="1"
     inkscape:current-layer="svg1" /><defs
     id="defs1"><linearGradient
       id="linearGradient43"
       inkscape:collect="always"><stop
         style="stop-color:#ffdd70;stop-opacity:1;"
         offset="0"
         id="stop43" /><stop
         style="stop-color:#ffcf70;stop-opacity:1;"
         offset="1"
         id="stop44" /></linearGradient><linearGradient
       inkscape:collect="always"
       xlink:href="#linearGradient43"
       id="linearGradient44"
       x1="47.946407"
       y1="32.358276"
       x2="146.21208"
       y2="149.46675"
       gradientUnits="userSpaceOnUse" /></defs><g
     inkscape:groupmode="layer"
     id="layer1"
     inkscape:label="image"
     style="display:inline"
     transform="translate(-7.2428715,-13.611806)"><path
       style="opacity:1;fill:url(#linearGradient44);fill-opacity:1;stroke:none;stroke-width:1;stroke-linecap:square;stroke-linejoin:round;stroke-dasharray:none;stroke-opacity:1"
       d="m 130.28442,33.587572 c 0,0 23.34412,-13.544103 38.18377,-10.606602 8.13173,27.400388 -1.76777,51.795572 -1.76777,51.795572 3.5391,18.953752 3.23315,37.083558 0.17678,54.623998 7.29629,12.69867 9.89959,23.60954 -2.47487,28.8146 -38.47601,11.47781 -78.966421,12.30813 -120.738486,6.36396 -6.35024,-1.71448 -12.707122,-3.36918 -17.67767,-17.50089 -6.164919,-31.10219 -8.647907,-61.54982 6.187185,-88.918677 -2.063756,-7.645874 0.33886,-38.153256 6.540737,-44.547727 12.867028,0.569656 23.84195,4.382919 33.410796,10.606601 21.943892,-3.50258 40.222478,-1.270041 58.159528,9.369165 z"
       id="path33"
       sodipodi:nodetypes="ccccccccccc" /><ellipse
       style="opacity:1;fill:#3f2c1f;fill-opacity:1;stroke:none;stroke-width:1.04403;stroke-linecap:square;stroke-linejoin:round;stroke-dasharray:none;stroke-opacity:1"
       id="path34"
       cx="83.197708"
       cy="75.261375"
       rx="4.8171649"
       ry="7.3362327" /><ellipse
       style="opacity:1;fill:#3f2c1f;fill-opacity:1;stroke:none;stroke-width:1.01709;stroke-linecap:square;stroke-linejoin:round;stroke-dasharray:none;stroke-opacity:1"
       id="path35"
       cx="42.382217"
       cy="75.130104"
       rx="5.0154095"
       ry="7.976419" /><path
       style="opacity:1;fill:none;fill-opacity:1;stroke:#7d6d62;stroke-width:4;stroke-linecap:round;stroke-linejoin:round;stroke-dasharray:none;stroke-opacity:1"
       d="m 146.5,80 -42,6.5"
       id="path36" /><path
       style="display:inline;opacity:1;fill:#e1e8e9;fill-opacity:1;stroke:none;stroke-width:1;stroke-linecap:square;stroke-linejoin:round;stroke-dasharray:none;stroke-opacity:1"
       d="m 115.25,75 -8.5,-7.5 -53.5,7.25 L 17.75,66 11,75.5 l 40.5,11 z"
       id="path40" /><path
       style="display:inline;opacity:1;fill:none;fill-opacity:1;stroke:#7d6d62;stroke-width:4;stroke-linecap:round;stroke-linejoin:round;stroke-dasharray:none;stroke-opacity:1"
       d="M 146.5,98 104.25,94.25"
       id="path37" /><path
       style="display:inline;opacity:1;fill:#5d9d5a;fill-opacity:1;stroke:none;stroke-width:1;stroke-linecap:square;stroke-linejoin:round;stroke-dasharray:none;stroke-opacity:1"
       d="m 52.875,83.25 64,-8.875 L 125.5,149.5 70.75,158 57.25,157 20,144.75 7.75,73 Z"
       id="path41"
       sodipodi:nodetypes="cccccccc" /><path
       style="display:inline;opacity:1;fill:#ffd570;fill-opacity:1;stroke:#3f2c1f;stroke-width:2;stroke-linecap:square;stroke-linejoin:round;stroke-dasharray:none;stroke-opacity:1"
       d="m 123.5,101.5 c -16.5,9.75 -16.85428,22.94064 -11.75,27.125 8.9853,7.36592 32.78447,0.45029 35.5,-9.625"
       id="path38"
       sodipodi:nodetypes="csc" /><path
       style="opacity:1;fill:#ffd570;fill-opacity:1;stroke:none;stroke-width:1;stroke-linecap:square;stroke-linejoin:round;stroke-dasharray:none;stroke-opacity:1"
       d="m 7.25,113.875 c 0.5,8.375 5.375,11.625 8.25,11.625 2.875,0 6.375,-4.625 6,-9.75 -0.375,-5.125 0,-13.375 -7.375,-12.875 -7.375,0.5 -6.875,11 -6.875,11 z"
       id="path39" /><path
       style="opacity:1;fill:none;fill-opacity:1;stroke:#3e683c;stroke-width:1;stroke-linecap:square;stroke-linejoin:round;stroke-dasharray:none;stroke-opacity:1"
       d="M 45.75,87.25 58.5,155"
       id="path42" /><path
       style="opacity:1;fill:none;fill-opacity:1;stroke:#3e683c;stroke-width:1;stroke-linecap:square;stroke-linejoin:round;stroke-dasharray:none;stroke-opacity:1"
       d="M 70,154.5 58.5,87.25"
       id="path43" /><path
       style="fill:#fffdf1;fill-opacity:1;stroke:none;stroke-width:4;stroke-linecap:square;stroke-linejoin:round"
       d="M 21.92031,141.77491 54.977551,152.20473 52.149124,138.0626 19.445436,127.63277 Z"
       id="path2" /><path
       style="fill:#fffdf1;fill-opacity:1;stroke:none;stroke-width:4;stroke-linecap:square;stroke-linejoin:round"
       d="m 44.901279,133.4664 -20.682872,-6.01041 -0.53033,-3.0052 20.682872,6.18718 z"
       id="path3" /></g><g
     inkscape:groupmode="layer"
     id="vertices"
     inkscape:label="vertices"
     style="display:inline"
     transform="translate(-7.2428715,-13.611806)"><path
       style="display:none;opacity:1;fill:none;fill-opacity:1;stroke:#3f2c1f;stroke-width:1;stroke-linecap:round;stroke-linejoin:round;stroke-dasharray:none;stroke-opacity:1"
       d="M 6.232233,116.20711 32.491378,164.42893 172.84924,158.45406 170.72971,22.010408 34.292893,13.874369 Z"
       id="path13"
       sodipodi:nodetypes="cccccc" /></g></svg>
