<?xml version="1.0" encoding="UTF-8" standalone="no"?>
<!-- Created with Inkscape (http://www.inkscape.org/) -->

<svg
   width="165.45358"
   height="169.44403"
   viewBox="0 0 165.45358 169.44403"
   version="1.1"
   id="svg1"
   xml:space="preserve"
   inkscape:version="1.4 (86a8ad7, 2024-10-11)"
   sodipodi:docname="suit.svg"
   xmlns:inkscape="http://www.inkscape.org/namespaces/inkscape"
   xmlns:sodipodi="http://sodipodi.sourceforge.net/DTD/sodipodi-0.dtd"
   xmlns:xlink="http://www.w3.org/1999/xlink"
   xmlns="http://www.w3.org/2000/svg"
   xmlns:svg="http://www.w3.org/2000/svg"><sodipodi:namedview
     id="namedview1"
     pagecolor="#ffffff"
     bordercolor="#000000"
     borderopacity="0.25"
     inkscape:showpageshadow="2"
     inkscape:pageopacity="0.0"
     inkscape:pagecheckerboard="0"
     inkscape:deskcolor="#d1d1d1"
     inkscape:document-units="px"
     inkscape:zoom="2.0334082"
     inkscape:cx="-11.065166"
     inkscape:cy="70.571172"
     inkscape:window-width="1920"
     inkscape:window-height="1009"
     inkscape:window-x="-8"
     inkscape:window-y="-8"
     inkscape:window-maximized="1"
     inkscape:current-layer="svg1" /><defs
     id="defs1"><linearGradient
       id="linearGradient114"
       inkscape:collect="always"><stop
         style="stop-color:#ffe06f;stop-opacity:1;"
         offset="0"
         id="stop114" /><stop
         style="stop-color:#ffcf6f;stop-opacity:1;"
         offset="1"
         id="stop115" /></linearGradient><linearGradient
       inkscape:collect="always"
       xlink:href="#linearGradient114"
       id="linearGradient115"
       x1="27.194792"
       y1="3.9089541"
       x2="145.3864"
       y2="92.972717"
       gradientUnits="userSpaceOnUse" /></defs><g
     inkscape:groupmode="layer"
     id="vertices"
     inkscape:label="vertices"
     style="display:none"
     transform="translate(-7.6363094,-5.9014222)"><path
       style="display:inline;fill:none;fill-opacity:1;stroke:#000000;stroke-width:1;stroke-linecap:round;stroke-linejoin:round;stroke-dasharray:none;stroke-opacity:1"
       d="M 52.147218,4.8385931 10.477313,60.343046 6.9548927,141.37077 20.210685,173.5259 171.77092,171.5168 171.99284,130.92195 159.77521,26.756388 Z"
       id="path41"
       sodipodi:nodetypes="cccccccc" /></g><g
     inkscape:groupmode="layer"
     id="layer5"
     inkscape:label="image"
     transform="translate(-7.6363094,-5.9014222)"><path
       style="fill:url(#linearGradient115);fill-opacity:1;stroke:none;stroke-width:1;stroke-linecap:round;stroke-linejoin:round;stroke-dasharray:none;stroke-opacity:1"
       d="m 82.415479,23.646635 c 13.214296,-0.347744 28.515061,6.259404 28.515061,6.259404 11.47557,-6.259404 36.86093,-8.693616 49.03199,-3.825191 1.73873,15.648508 -2.26034,36.339314 -7.82425,42.598718 1.46374,4.262431 2.897,7.854503 2.897,7.854503 L 122.20862,90.242581 19.425515,90.980259 12.29463,74.505455 C 14.564767,67.270159 16.961471,62.504025 20.637503,57.697823 24.723502,43.22723 38.113352,16.720696 54.342263,5.9014222 72.538314,8.8521333 82.415479,23.646635 82.415479,23.646635 Z"
       id="path98"
       sodipodi:nodetypes="ccccccccccc" /><path
       style="opacity:1;fill:#cccccc;fill-opacity:1;stroke:none;stroke-width:1;stroke-linecap:round;stroke-linejoin:round;stroke-dasharray:none;stroke-opacity:1"
       d="M 128.49164,90.065861 22.255657,89.022627 58.073354,137.18526 Z"
       id="path112" /><path
       style="opacity:1;fill:#1d2125;fill-opacity:1;stroke:none;stroke-width:1;stroke-linecap:round;stroke-linejoin:round;stroke-dasharray:none;stroke-opacity:1"
       d="m 49.553611,95.108158 3.129701,10.432342 -4.868424,19.12595 9.215232,10.78009 12.084127,-10.86702 -3.042766,-19.82145 2.695021,-7.65038 -7.215701,-7.128765 -4.955361,0.08694 z"
       id="path101" /><path
       style="opacity:1;fill:#ffffff;fill-opacity:1;stroke:none;stroke-width:1;stroke-linecap:round;stroke-linejoin:round;stroke-dasharray:none;stroke-opacity:1"
       d="M 15.474636,86.588415 C 59.290461,90.587478 122.05837,88.674882 126.05743,88.153265 104.49726,95.97752 93.195563,100.67207 75.286714,103.6279 68.679566,99.802711 62.767907,93.891052 59.290461,90.413606 51.640079,96.673009 41.033867,102.93241 41.033867,102.93241 32.687996,98.759477 18.952083,90.413606 15.474636,86.588415 Z"
       id="path99" /><path
       style="opacity:1;fill:#383e45;fill-opacity:1;stroke:none;stroke-width:1;stroke-linecap:round;stroke-linejoin:round;stroke-dasharray:none;stroke-opacity:1"
       d="m 10.606211,83.632585 c -3.9990629,17.039485 -5.0422968,61.898545 3.825191,75.460585 8.867489,13.56204 19.995317,12.51881 24.342125,13.04043 4.346808,0.52161 36.687059,2.43421 72.330883,0.34774 5.21617,-3.82519 46.94553,-38.42578 50.07523,-40.33838 2.43421,-28.16731 -3.65132,-51.987821 -7.30264,-59.290459 -10.08459,6.781021 -95.803646,59.464329 -95.803646,59.464329 l -4.172935,-1.56485 z"
       id="path102" /><path
       style="opacity:1;fill:#434a55;fill-opacity:1;stroke:none;stroke-width:1;stroke-linecap:round;stroke-linejoin:round;stroke-dasharray:none;stroke-opacity:1"
       d="M 154.22475,72.852501 C 131.96909,80.676756 67.810204,121.71062 56.856248,132.14296 47.119398,122.23224 15.822381,81.198373 12.866552,71.28765 c -6.2594039,23.99438 -3.8251914,41.38161 1.56485,51.46621 12.69268,2.43421 38.25191,7.65038 42.424846,10.25846 18.256593,-3.99906 61.203052,-7.65038 61.203052,-7.65038 11.3017,-15.99625 17.03949,-27.297952 36.16545,-52.509439 z"
       id="path100" /><path
       id="path103"
       style="opacity:1;fill:#080808;fill-opacity:1;stroke:none;stroke-linecap:round;stroke-linejoin:round"
       d="m 64.854375,146.48744 a 7.3895736,5.8247228 0 0 1 -7.389573,5.82472 7.3895736,5.8247228 0 0 1 -7.389574,-5.82472 7.3895736,5.8247228 0 0 1 7.389574,-5.82472 7.3895736,5.8247228 0 0 1 7.389573,5.82472 z" /><path
       style="opacity:1;fill:none;fill-opacity:1;stroke:#3f2c1f;stroke-width:4;stroke-linecap:butt;stroke-linejoin:round;stroke-dasharray:none;stroke-opacity:1"
       d="m 128.06153,137.97901 c 1.31307,-21.95408 27.21623,-20.95597 28.0675,1.1247"
       id="path114"
       sodipodi:nodetypes="cc" /><path
       style="opacity:1;fill:#3f2c1f;fill-opacity:1;stroke:none;stroke-width:1;stroke-linecap:round;stroke-linejoin:round;stroke-dasharray:none;stroke-opacity:1"
       d="m 107.97471,130.23036 c -2.43421,12.34494 -1.39098,39.81677 0.34774,44.16358 17.38724,1.73872 49.90136,0.69548 63.81115,0 1.39097,-18.2566 1.04323,-28.68894 0.34774,-42.94647 -14.41754,-2.08647 -54.94365,-2.08647 -64.50663,-1.21711 z"
       id="path104"
       sodipodi:nodetypes="ccccc" /><path
       style="opacity:1;fill:none;fill-opacity:1;stroke:#3f2c1f;stroke-width:3;stroke-linecap:butt;stroke-linejoin:round;stroke-dasharray:none;stroke-opacity:1"
       d="M 107.62697,54.76978 C 99.454966,64.854375 86.936159,67.288587 91.630712,53.204929"
       id="path105" /><path
       style="opacity:1;fill:none;fill-opacity:1;stroke:#3f2c1f;stroke-width:3;stroke-linecap:butt;stroke-linejoin:round;stroke-dasharray:none;stroke-opacity:1"
       d="m 55.639142,52.335568 c -9.389105,15.300764 -17.734977,7.302637 -13.562041,0"
       id="path106" /><path
       style="opacity:1;fill:none;fill-opacity:1;stroke:#3f2c1f;stroke-width:3;stroke-linecap:butt;stroke-linejoin:round;stroke-dasharray:none;stroke-opacity:1"
       d="m 84.328074,65.549864 c -11.3017,10.606211 -16.691743,9.910722 -19.4737,1.390979 -5.737786,9.736849 -13.735912,8.867488 -16.343997,-1.390979"
       id="path107"
       sodipodi:nodetypes="ccc" /><path
       style="opacity:1;fill:none;fill-opacity:1;stroke:#7d6d62;stroke-width:3;stroke-linecap:round;stroke-linejoin:round;stroke-dasharray:none;stroke-opacity:1"
       d="m 103.6279,67.462459 28.16732,0.173873"
       id="path108" /><path
       style="opacity:1;fill:none;fill-opacity:1;stroke:#7d6d62;stroke-width:3;stroke-linecap:round;stroke-linejoin:round;stroke-dasharray:none;stroke-opacity:1"
       d="m 101.71531,74.591225 28.34118,6.259403"
       id="path109" /><path
       style="opacity:1;fill:none;fill-opacity:1;stroke:#7d6d62;stroke-width:3;stroke-linecap:round;stroke-linejoin:round;stroke-dasharray:none;stroke-opacity:1"
       d="M 37.382548,64.854375 18.604338,63.463396"
       id="path110" /><path
       style="opacity:1;fill:none;fill-opacity:1;stroke:#7d6d62;stroke-width:3;stroke-linecap:round;stroke-linejoin:round;stroke-dasharray:none;stroke-opacity:1"
       d="M 36.860931,73.200246 13.909785,76.329948"
       id="path111" /><path
       style="opacity:1;fill:none;fill-opacity:1;stroke:#2a1c1c;stroke-width:2;stroke-linecap:butt;stroke-linejoin:round;stroke-dasharray:none;stroke-opacity:1"
       d="m 107.70095,149.2568 c 14.26177,-0.98357 49.67031,-2.09008 62.70262,-1.10651"
       id="path113" /></g></svg>
