<?xml version="1.0" encoding="UTF-8" standalone="no"?>
<!-- Created with Inkscape (http://www.inkscape.org/) -->

<svg
   width="85.031021"
   height="108.31913"
   viewBox="0 0 85.031031 108.31912"
   version="1.1"
   id="svg1"
   inkscape:version="1.3.2 (091e20e, 2023-11-25, custom)"
   sodipodi:docname="08_ibaraki.svg"
   xmlns:inkscape="http://www.inkscape.org/namespaces/inkscape"
   xmlns:sodipodi="http://sodipodi.sourceforge.net/DTD/sodipodi-0.dtd"
   xmlns:xlink="http://www.w3.org/1999/xlink"
   xmlns="http://www.w3.org/2000/svg"
   xmlns:svg="http://www.w3.org/2000/svg">
  <sodipodi:namedview
     id="namedview1"
     pagecolor="#ffffff"
     bordercolor="#000000"
     borderopacity="0.25"
     inkscape:showpageshadow="2"
     inkscape:pageopacity="0.0"
     inkscape:pagecheckerboard="0"
     inkscape:deskcolor="#d1d1d1"
     inkscape:document-units="px"
     inkscape:zoom="4.1877625"
     inkscape:cx="21.729981"
     inkscape:cy="75.577352"
     inkscape:window-width="1920"
     inkscape:window-height="1009"
     inkscape:window-x="-8"
     inkscape:window-y="-8"
     inkscape:window-maximized="1"
     inkscape:current-layer="layer1" />
  <defs
     id="defs1">
    <linearGradient
       id="linearGradient1"
       inkscape:collect="always">
      <stop
         style="stop-color:#000000;stop-opacity:1;"
         offset="0"
         id="stop1" />
      <stop
         style="stop-color:#595959;stop-opacity:1;"
         offset="1"
         id="stop2" />
    </linearGradient>
    <radialGradient
       inkscape:collect="always"
       xlink:href="#linearGradient1"
       id="radialGradient2"
       cx="219.67124"
       cy="32.896449"
       fx="219.67124"
       fy="32.896449"
       r="42.51551"
       gradientTransform="matrix(1,0,0,1.2738778,0,-9.0096075)"
       gradientUnits="userSpaceOnUse" />
  </defs>
  <g
     inkscape:label="Layer 1"
     inkscape:groupmode="layer"
     id="layer1"
     transform="translate(-177.15573,21.263117)">
    <path
       id="path8"
       style="display:inline;fill:url(#radialGradient2);fill-opacity:1;stroke:#ffffff;stroke-width:6;stroke-dasharray:none;stroke-opacity:1;stroke-linejoin:bevel"
       d="m 218.2513,-20.906721 0.34432,14.7813195 2.60126,6.05939917 -5.37084,3.11386063 2.76958,15.4086977 -3.11386,3.978387 -2.24933,5.02659 -3.98607,-0.696243 -6.0594,3.465821 -8.13277,1.905052 -2.94558,4.674591 -4.49867,0.688604 -0.34432,5.370834 -9.8695,3.978387 2.94558,9.517581 4.49863,-0.512605 1.90505,2.9379 2.9379,1.216487 6.92396,10.213785 9.00498,4.49867 6.23536,1.905052 8.47709,-1.729092 2.25698,1.553131 9.86186,-5.363234 3.46578,1.040525 1.38481,-3.465821 6.57968,4.498669 1.04049,2.425296 4.84295,1.905052 9.34926,9.349259 2.58594,-0.642656 -3.06031,-1.920368 -7.93386,-16.081947 -6.2124,-11.590916 -4.07025,-12.837997 -0.13749,-7.176467 4.55221,-6.074715 -2.27229,-3.037358 1.92801,-7.107563 6.90097,-16.6327841 4.42217,-14.0086119 2.89199,-1.453634 -0.91808,-2.853759 -7.50543,-1.415362 -9.34926,-4.842952 1.04053,6.403682 -8.30878,5.8834773 -6.0594,-3.6341433 v -2.945538 z" />
    <path
       style="display:none;fill:none;stroke:#000000;stroke-linejoin:bevel"
       d="M 80.62736,6.683575 41.09557,0.356396 38.32603,43.69806 1.71318,72.870486 31.57417,96.93604 59.445965,91.656985 83.24372,107.78102 63.191125,61.440233 Z"
       id="path1"
       sodipodi:nodetypes="ccccccccc"
       transform="translate(177.15573,-21.263117)" />
  </g>
</svg>
