<?xml version="1.0" encoding="UTF-8" standalone="no"?>
<!-- Created with Inkscape (http://www.inkscape.org/) -->

<svg
   width="89.267296"
   height="116.16618"
   viewBox="0 0 89.267304 116.16617"
   version="1.1"
   id="svg1"
   inkscape:version="1.3.2 (091e20e, 2023-11-25, custom)"
   sodipodi:docname="12_chiba.svg"
   xmlns:inkscape="http://www.inkscape.org/namespaces/inkscape"
   xmlns:sodipodi="http://sodipodi.sourceforge.net/DTD/sodipodi-0.dtd"
   xmlns:xlink="http://www.w3.org/1999/xlink"
   xmlns="http://www.w3.org/2000/svg"
   xmlns:svg="http://www.w3.org/2000/svg">
  <sodipodi:namedview
     id="namedview1"
     pagecolor="#ffffff"
     bordercolor="#000000"
     borderopacity="0.25"
     inkscape:showpageshadow="2"
     inkscape:pageopacity="0.0"
     inkscape:pagecheckerboard="0"
     inkscape:deskcolor="#d1d1d1"
     inkscape:document-units="px"
     inkscape:zoom="4.1877625"
     inkscape:cx="-10.745595"
     inkscape:cy="76.054934"
     inkscape:window-width="1920"
     inkscape:window-height="1009"
     inkscape:window-x="-8"
     inkscape:window-y="-8"
     inkscape:window-maximized="1"
     inkscape:current-layer="layer1" />
  <defs
     id="defs1">
    <linearGradient
       id="linearGradient1"
       inkscape:collect="always">
      <stop
         style="stop-color:#000000;stop-opacity:1;"
         offset="0"
         id="stop1" />
      <stop
         style="stop-color:#4e4e4e;stop-opacity:1;"
         offset="1"
         id="stop2" />
    </linearGradient>
    <radialGradient
       inkscape:collect="always"
       xlink:href="#linearGradient1"
       id="radialGradient2"
       cx="254.29994"
       cy="36.277739"
       fx="254.29994"
       fy="36.277739"
       r="44.633629"
       gradientTransform="matrix(1,0,0,1.3013299,0,-10.931567)"
       gradientUnits="userSpaceOnUse" />
  </defs>
  <g
     inkscape:label="Layer 1"
     inkscape:groupmode="layer"
     id="layer1"
     transform="translate(-209.66629,21.805352)">
    <path
       id="path13"
       style="display:inline;fill:url(#radialGradient2);fill-opacity:1;stroke:#fcfcfc;stroke-width:6;stroke-dasharray:none;stroke-opacity:1;stroke-linejoin:bevel"
       d="m 211.11896,-21.410146 2.44684,6.276237 1.13959,7.390685 4.92715,5.1198724 0.76252,5.1198724 -1.13959,5.1198724 2.65629,8.5303178 -3.70373,7.239881 3.27638,1.357494 2.48871,-3.326656 -1.20664,-2.421702 4.45788,-0.15059 4.84336,3.251232 3.47746,6.502508 2.48872,0.603302 -4.23166,2.497083 -1.13122,2.874158 -7.10581,7.784577 -4.0808,0.377118 0.37711,8.312456 -5.82374,-1.583721 1.81836,1.659145 -1.59213,2.72331 -2.79037,0.452498 3.01664,0.98042 1.96916,5.06959 -0.15058,2.790368 -3.62835,4.164594 2.18706,4.307075 -0.30161,5.212028 -1.28207,1.441284 0.15059,3.326655 1.80999,3.242867 -3.24286,1.592087 -4.08922,0.678725 0.23468,1.441284 3.77916,0.980419 -0.15102,1.885373 3.62835,2.195432 4.45788,0.527921 3.55292,-3.854577 1.43288,-6.427084 9.67831,-5.739949 2.56415,-4.156228 5.06959,-1.215013 2.5725,1.592087 8.16161,-3.100385 1.5083,-3.326699 2.49708,-1.131223 2.72336,-5.295818 V 52.86593 l -1.44129,-3.100428 1.29044,-9.75374 4.00542,-7.859958 9.97156,-10.432465 6.95501,-5.589103 7.94374,0.151019 3.70374,-1.131224 2.56414,1.282071 2.04458,-1.516707 -1.59209,-3.092019 -0.27672,-0.167751 -2.83224,0.703866 -10.23975,-10.2397443 -5.30422,-2.08650163 -1.13959,-2.65629637 -7.20638,-4.9271521 -1.5167,3.7959287 -3.79589,-1.1396324 -10.80117,5.87406429 -2.47195,-1.70106105 -9.2845,1.89378136 -6.82926,-2.08650164 -9.86267,-4.92715216 -7.58345,-11.1866137 -3.21773,-1.332353 -2.0865,-3.217725 z" />
    <path
       style="display:none;fill:none;stroke:#ffffff;stroke-width:1;stroke-linejoin:bevel;stroke-dasharray:none"
       d="m 211.11896,-21.410146 13.35237,53.57156 -7.06777,61.445594 42.8569,-29.479062 5.21625,-31.976142 32.38672,-18.782419 -27.79494,-20.919588 z"
       id="path1" />
  </g>
</svg>
