<?xml version="1.0" encoding="UTF-8" standalone="no"?>
<!-- Created with Inkscape (http://www.inkscape.org/) -->

<svg
   width="85.705643"
   height="76.642937"
   viewBox="0 0 85.70564 76.64292"
   version="1.1"
   id="svg1"
   inkscape:version="1.3.2 (091e20e, 2023-11-25, custom)"
   sodipodi:docname="16_toyama.svg"
   xmlns:inkscape="http://www.inkscape.org/namespaces/inkscape"
   xmlns:sodipodi="http://sodipodi.sourceforge.net/DTD/sodipodi-0.dtd"
   xmlns:xlink="http://www.w3.org/1999/xlink"
   xmlns="http://www.w3.org/2000/svg"
   xmlns:svg="http://www.w3.org/2000/svg">
  <sodipodi:namedview
     id="namedview1"
     pagecolor="#ffffff"
     bordercolor="#000000"
     borderopacity="0.25"
     inkscape:showpageshadow="2"
     inkscape:pageopacity="0.0"
     inkscape:pagecheckerboard="0"
     inkscape:deskcolor="#d1d1d1"
     inkscape:document-units="px"
     inkscape:zoom="8.375525"
     inkscape:cx="25.192451"
     inkscape:cy="30.386155"
     inkscape:window-width="1920"
     inkscape:window-height="1009"
     inkscape:window-x="-8"
     inkscape:window-y="-8"
     inkscape:window-maximized="1"
     inkscape:current-layer="layer1" />
  <defs
     id="defs1">
    <linearGradient
       id="linearGradient2"
       inkscape:collect="always">
      <stop
         style="stop-color:#000000;stop-opacity:1;"
         offset="0"
         id="stop2" />
      <stop
         style="stop-color:#525252;stop-opacity:1;"
         offset="1"
         id="stop3" />
    </linearGradient>
    <radialGradient
       inkscape:collect="always"
       xlink:href="#linearGradient2"
       id="radialGradient3"
       cx="178.57373"
       cy="57.985293"
       fx="178.57373"
       fy="57.985293"
       r="42.85282"
       gradientTransform="matrix(1,0,0,0.89425782,0,6.1314912)"
       gradientUnits="userSpaceOnUse" />
  </defs>
  <g
     inkscape:label="Layer 1"
     inkscape:groupmode="layer"
     id="layer1"
     transform="translate(-135.72092,-19.663824)">
    <path
       id="path22"
       style="display:inline;fill:url(#radialGradient3);fill-opacity:1;stroke:#ffffff;stroke-width:6;stroke-dasharray:none;stroke-opacity:1;stroke-linejoin:bevel"
       d="m 159.6441,22.988604 -6.63566,-0.163599 -4.10308,0.617261 -4.32088,7.189387 -1.02579,4.720344 -1.43423,1.85183 -0.82609,9.032154 -3.90332,3.086351 2.67786,7.3891 -2.46909,2.46909 -0.20868,8.006407 2.06061,2.260316 -2.87758,6.572127 -0.61726,8.423956 2.46909,2.260316 -1.64306,3.077289 1.0258,4.520585 3.28606,-0.816973 1.64301,-3.494838 4.52063,-1.234568 4.7203,1.851829 1.23457,5.337605 6.57212,-3.903324 0.61726,-4.311857 10.05795,-10.266677 3.28607,2.877577 3.49483,-3.703659 6.16364,0.617261 -0.82603,2.260316 4.32092,-1.434234 4.92907,2.668803 8.21518,0.816972 1.43428,2.877577 4.684,-0.254229 6.30888,-8.033596 0.43549,-4.938181 3.05005,-1.742888 -0.43548,-5.228662 4.93818,-1.452406 0.7262,-8.133475 -2.03337,-4.792941 1.72472,-7.189434 -0.29049,0.0725 -3.49483,-10.067011 -0.20869,-8.215182 -3.90332,-0.617261 -1.2981,-3.894261 -7.3528,2.396447 -9.65853,3.603826 -4.42981,4.093927 0.32673,5.074359 -3.75808,7.534386 -8.02458,3.440367 -12.61777,-2.133201 -4.58416,-1.960772 -5.40114,-3.767193 -1.80642,-4.756596 5.24683,-9.331745 z" />
    <path
       style="display:none;fill:none;stroke:#000000;stroke-width:1;stroke-linejoin:bevel;stroke-dasharray:none;stroke-opacity:1"
       d="m 153.00844,22.825005 2.67071,18.199479 30.4588,4.674075 4.10675,-15.648058 21.44114,-10.0942 c 0,0 9.86718,30.636852 9.50408,34.70359 -0.3631,4.066737 -17.36532,29.656322 -17.36532,29.656322 l -29.77809,-8.525035 -20.8292,20.153395 -16.43037,-6.16364 5.33752,-52.577106 z"
       id="path1"
       sodipodi:nodetypes="cccccscccccc" />
  </g>
</svg>
