<?xml version="1.0" encoding="UTF-8" standalone="no"?>
<!-- Created with Inkscape (http://www.inkscape.org/) -->

<svg
   width="69.245033"
   height="109.26569"
   viewBox="0 0 69.245031 109.26567"
   version="1.1"
   id="svg1"
   inkscape:version="1.3.2 (091e20e, 2023-11-25, custom)"
   sodipodi:docname="20_nagano.svg"
   xmlns:inkscape="http://www.inkscape.org/namespaces/inkscape"
   xmlns:sodipodi="http://sodipodi.sourceforge.net/DTD/sodipodi-0.dtd"
   xmlns:xlink="http://www.w3.org/1999/xlink"
   xmlns="http://www.w3.org/2000/svg"
   xmlns:svg="http://www.w3.org/2000/svg">
  <sodipodi:namedview
     id="namedview1"
     pagecolor="#ffffff"
     bordercolor="#000000"
     borderopacity="0.25"
     inkscape:showpageshadow="2"
     inkscape:pageopacity="0.0"
     inkscape:pagecheckerboard="0"
     inkscape:deskcolor="#d1d1d1"
     inkscape:document-units="px"
     inkscape:zoom="4.1877625"
     inkscape:cx="-3.7012605"
     inkscape:cy="73.428233"
     inkscape:window-width="1920"
     inkscape:window-height="1009"
     inkscape:window-x="-8"
     inkscape:window-y="-8"
     inkscape:window-maximized="1"
     inkscape:current-layer="layer1" />
  <defs
     id="defs1">
    <linearGradient
       id="linearGradient1"
       inkscape:collect="always">
      <stop
         style="stop-color:#000000;stop-opacity:1;"
         offset="0"
         id="stop1" />
      <stop
         style="stop-color:#4e4e4e;stop-opacity:1;"
         offset="1"
         id="stop2" />
    </linearGradient>
    <radialGradient
       inkscape:collect="always"
       xlink:href="#linearGradient1"
       id="radialGradient2"
       cx="216.97601"
       cy="39.372975"
       fx="216.97601"
       fy="39.372975"
       r="34.622518"
       gradientTransform="matrix(1,0,0,1.5779569,0,-22.755884)"
       gradientUnits="userSpaceOnUse" />
  </defs>
  <g
     inkscape:label="Layer 1"
     inkscape:groupmode="layer"
     id="layer1"
     transform="translate(-182.35349,15.259867)">
    <path
       id="path19"
       style="display:inline;fill:url(#radialGradient2);fill-opacity:1;stroke:#ffffff;stroke-width:6;stroke-dasharray:none;stroke-opacity:1;stroke-linejoin:bevel"
       d="m 203.31571,-0.49325294 -0.97734,4.07401784 1.15224,2.7160031 -0.41151,4.608975 -2.79831,0.823031 0.24678,2.962913 -1.72837,0.987637 -0.24678,2.798307 -3.62133,4.608975 2.38679,3.127518 0.57612,2.6337 -3.20982,4.773582 0.49382,2.6337 -1.39916,1.06994 -1.31685,3.209822 3.53904,1.646063 -0.74073,3.045215 -6.25504,7.736494 -2.46909,-0.164606 -1.97528,1.563759 -0.1646,1.646063 -1.64607,0.905334 -0.24677,1.31685 2.46909,0.905334 3.53903,1.810669 3.62134,6.255038 -0.98764,1.975275 1.89298,2.798306 -0.0822,2.469094 2.96292,0.08217 0.98763,2.798306 -0.90533,1.646063 1.39915,3.209822 -2.13988,0.658425 0.74073,2.304487 -2.30449,3.539034 -0.65842,2.716004 1.15224,2.222184 7.07807,-1.31685 2.96291,1.563759 4.69128,-0.987637 0.57612,-1.399153 4.52667,-2.222185 2.5514,-2.38679 3.04522,-0.905335 2.22218,-1.810668 0.41152,-1.975275 -0.82303,-1.646063 1.56376,-2.386791 -1.15225,-2.139881 0.82303,-3.785944 1.97528,-0.576121 0.79216,-4.156321 -1.36828,-4.567811 2.46909,-1.234547 -1.48146,-2.716003 1.97528,-4.526672 h 2.38679 l 3.53903,-4.773581 1.39916,-0.823031 2.6337,0.823031 0.57612,2.304488 1.72836,1.06994 1.56376,-1.481456 3.45673,0.246778 0.65843,2.551397 2.96291,0.246777 1.64606,-2.139881 1.71807,-0.365241 -0.0772,-0.06163 v -1.748961 l -1.43515,-2.489663 -0.19542,0.277776 -3.14295,-3.83738 0.34978,-3.960847 -1.98041,-0.93104 -0.93107,-2.79317 2.21191,-1.04421 -0.93106,-5.936122 2.33022,-0.931066 -0.46812,-7.216944 -6.05442,0.931066 -5.8178,-1.980437 -1.16254,-3.955686 3.49274,-8.1480093 3.25612,-0.9310656 -0.34978,-2.5616683 1.16767,-0.8127598 2.55654,0.2315022 c 0,0 3.38085,-1.8372428 4.98449,-2.9783197 l -1.26028,-2.7263008 0.81789,-3.9556858 -2.68,-1.0493714 -2.09358,-3.1429522 0.46812,-3.8425423 -2.79318,-1.625467 -6.86716,1.975275 -3.02978,4.4237736 -1.97527,0.6995897 -0.34981,3.7242098 -4.31061,-1.3991531 -5.11822,1.3991531 -1.86213,2.4433889 -1.74894,-2.3250831 0.11825,-3.3795638 -5.23653,-1.5123232 -2.56167,0.2365062 0.11826,3.4875719 -3.26126,4.3106295 z" />
    <path
       style="display:none;fill:none;stroke:#000000;stroke-width:1;stroke-linejoin:bevel;stroke-dasharray:none;stroke-opacity:1"
       d="m 208.85929,-9.051301 -24.59547,66.622689 12.89471,23.162727 -3.10428,11.939548 26.98338,-6.20856 8.59648,-37.012609 21.72998,2.149119 -5.73099,-29.610084 -12.65592,-2.149119 15.52142,-23.162727 -7.64132,-10.984386 z"
       id="path1" />
  </g>
</svg>
