<?xml version="1.0" encoding="UTF-8" standalone="no"?>
<!-- Created with Inkscape (http://www.inkscape.org/) -->

<svg
   width="94.360909"
   height="80.900543"
   viewBox="0 0 94.360906 80.900525"
   version="1.1"
   id="svg1"
   inkscape:version="1.3.2 (091e20e, 2023-11-25, custom)"
   sodipodi:docname="23_aichi.svg"
   xmlns:inkscape="http://www.inkscape.org/namespaces/inkscape"
   xmlns:sodipodi="http://sodipodi.sourceforge.net/DTD/sodipodi-0.dtd"
   xmlns:xlink="http://www.w3.org/1999/xlink"
   xmlns="http://www.w3.org/2000/svg"
   xmlns:svg="http://www.w3.org/2000/svg">
  <sodipodi:namedview
     id="namedview1"
     pagecolor="#ffffff"
     bordercolor="#000000"
     borderopacity="0.25"
     inkscape:showpageshadow="2"
     inkscape:pageopacity="0.0"
     inkscape:pagecheckerboard="0"
     inkscape:deskcolor="#d1d1d1"
     inkscape:document-units="px"
     inkscape:zoom="4.1877625"
     inkscape:cx="61.488683"
     inkscape:cy="25.431242"
     inkscape:window-width="1920"
     inkscape:window-height="1009"
     inkscape:window-x="-8"
     inkscape:window-y="-8"
     inkscape:window-maximized="1"
     inkscape:current-layer="layer1" />
  <defs
     id="defs1">
    <linearGradient
       id="linearGradient1"
       inkscape:collect="always">
      <stop
         style="stop-color:#000000;stop-opacity:1;"
         offset="0"
         id="stop1" />
      <stop
         style="stop-color:#494949;stop-opacity:1;"
         offset="1"
         id="stop2" />
    </linearGradient>
    <radialGradient
       inkscape:collect="always"
       xlink:href="#linearGradient1"
       id="radialGradient2"
       cx="164.19507"
       cy="73.150598"
       fx="164.19507"
       fy="73.150598"
       r="47.180456"
       gradientTransform="matrix(1,0,0,0.85735228,0,10.434766)"
       gradientUnits="userSpaceOnUse" />
  </defs>
  <g
     inkscape:label="Layer 1"
     inkscape:groupmode="layer"
     id="layer1"
     transform="translate(-117.01461,-32.700327)">
    <path
       id="path21"
       style="display:inline;fill:url(#radialGradient2);fill-opacity:1;stroke:#ffffff;stroke-width:6;stroke-dasharray:none;stroke-opacity:1;stroke-linejoin:bevel"
       d="m 189.76592,44.978919 -3.64989,-0.363367 -6.88581,4.967878 -6.49713,-5.542431 -7.46032,0.768868 -4.96792,2.289645 -9.17541,-4.967921 -1.90946,-5.736746 -5.73674,-3.438709 -3.43867,2.289646 -4.02165,-1.149019 -4.58773,3.058471 -5.92262,-0.380238 -1.3349,7.071645 -4.78204,4.976357 0.38023,4.587727 -2.48396,3.63298 7.45189,7.832077 0.8533,4.951008 7.61242,-0.980053 1.45321,-2.745888 0.68434,3.20213 -3.58233,4.190618 -0.68434,8.53329 3.50628,7.240654 -2.28965,4.722908 2.74589,4.646861 5.02706,2.66984 h 2.44169 l 0.15227,-3.050035 -3.20213,-3.117647 -0.98849,-5.187543 3.96248,-8.761475 -0.38024,5.40725 4.79896,6.860459 12.19166,0.76039 1.45317,-3.506234 h 9.21767 l 2.06155,1.377161 -0.68439,7.012511 -2.82189,0.152269 -1.14058,2.053064 -10.36674,5.87193 -4.19062,-0.15227 -1.52921,-1.30111 -3.35419,7.5448 3.58229,-0.98853 4.65529,0.53229 8.68543,-4.57082 18.97607,-5.1031 h 0.70126 l -1.04767,-7.485666 1.52922,-7.646154 6.88581,-1.140627 4.01317,-3.447101 1.91789,-5.542431 3.8189,-1.529257 2.29808,-8.026349 2.2896,-2.103766 3.82734,-9.175454 1.27577,-6.412653 -3.51472,0.743519 -4.86652,-2.568444 -11.62559,2.1629 -1.89254,-3.649894 z" />
    <path
       style="display:none;fill:none;stroke:#000000;stroke-width:1;stroke-linejoin:bevel;stroke-dasharray:none;stroke-opacity:1"
       d="m 143.04283,32.939118 -19.81965,6.208566 -5.25341,17.670534 31.52042,56.593472 33.43074,-10.02923 1.67153,-14.088666 16.23779,-9.432244 9.55164,-27.102779 z"
       id="path1"
       sodipodi:nodetypes="ccccccccc" />
  </g>
</svg>
