<?xml version="1.0" encoding="UTF-8" standalone="no"?>
<!-- Created with Inkscape (http://www.inkscape.org/) -->

<svg
   width="78.094063"
   height="82.220284"
   viewBox="0 0 78.094063 82.220263"
   version="1.1"
   id="svg1"
   inkscape:version="1.3.2 (091e20e, 2023-11-25, custom)"
   sodipodi:docname="28_hyogo.svg"
   xmlns:inkscape="http://www.inkscape.org/namespaces/inkscape"
   xmlns:sodipodi="http://sodipodi.sourceforge.net/DTD/sodipodi-0.dtd"
   xmlns:xlink="http://www.w3.org/1999/xlink"
   xmlns="http://www.w3.org/2000/svg"
   xmlns:svg="http://www.w3.org/2000/svg">
  <sodipodi:namedview
     id="namedview1"
     pagecolor="#ffffff"
     bordercolor="#000000"
     borderopacity="0.25"
     inkscape:showpageshadow="2"
     inkscape:pageopacity="0.0"
     inkscape:pagecheckerboard="0"
     inkscape:deskcolor="#d1d1d1"
     inkscape:document-units="px"
     inkscape:zoom="2.0938813"
     inkscape:cx="0.716373"
     inkscape:cy="73.308837"
     inkscape:window-width="1920"
     inkscape:window-height="1009"
     inkscape:window-x="-8"
     inkscape:window-y="-8"
     inkscape:window-maximized="1"
     inkscape:current-layer="layer1" />
  <defs
     id="defs1">
    <linearGradient
       id="linearGradient2"
       inkscape:collect="always">
      <stop
         style="stop-color:#000000;stop-opacity:1;"
         offset="0"
         id="stop2" />
      <stop
         style="stop-color:#505050;stop-opacity:1;"
         offset="1"
         id="stop3" />
    </linearGradient>
    <radialGradient
       inkscape:collect="always"
       xlink:href="#linearGradient2"
       id="radialGradient3"
       cx="140.96931"
       cy="56.75057"
       fx="140.96931"
       fy="56.75057"
       r="41.773723"
       gradientTransform="matrix(1,0,0,1.051646,0,-2.9309426)"
       gradientUnits="userSpaceOnUse" />
  </defs>
  <g
     inkscape:label="Layer 1"
     inkscape:groupmode="layer"
     id="layer1"
     transform="translate(-101.83252,-15.641173)">
    <path
       id="path33"
       style="display:inline;fill:url(#radialGradient3);fill-opacity:1;stroke:#ffffff;stroke-width:6;stroke-dasharray:none;stroke-linejoin:bevel;stroke-opacity:1"
       d="m 134.99616,15.817806 -16.26693,0.530515 -7.5375,3.927242 2.76286,11.829842 2.02561,3.741196 0.23424,3.424242 2.49412,1.874037 -0.85435,6.703816 -3.04531,2.535462 h -2.96262 l -1.16439,2.452776 1.01281,4.051237 -3.50693,1.171269 -2.1083,6.083734 -2.96262,4.285505 -0.93704,5.532547 1.79827,2.886846 -1.94985,2.879933 1.08862,3.121115 3.35534,3.506928 -0.813,4.085666 2.04629,1.026602 3.78942,-1.743128 1.68111,-2.797281 21.44118,0.372056 9.56999,5.718557 4.60242,4.66444 10.87217,-0.310076 13.11826,-6.028598 4.29927,1.812022 2.58368,-2.122063 V 86.12178 l -1.79135,-2.96262 1.48131,-3.816969 0.31008,-2.962654 0.0825,-2.025619 -6.70381,-3.045306 0.15168,-4.829779 2.10831,-1.088582 1.51577,-1.598461 -0.93012,-4.092545 -6.04243,-2.259887 -1.09546,-2.693922 -4.20969,1.054153 -3.46559,-6.276659 -4.07879,-1.874037 -2.81107,1.102375 -4.18903,-4.023652 -2.81103,-0.716561 -1.92918,-4.133889 0.8819,-3.96855 5.34654,0.606289 1.70866,-2.590564 -0.11006,-5.2914 -0.77166,-2.755937 -6.28354,1.32285 -3.5827,-4.189025 -0.0963,-6.545356 z" />
    <path
       style="display:none;fill:none;fill-opacity:1;stroke:#000000;stroke-width:0.5;stroke-linejoin:bevel;stroke-dasharray:none;stroke-opacity:1"
       d="m 141.71062,14.686009 -31.04283,5.253402 5.2534,23.640309 -15.04383,33.191949 5.73098,15.043833 17.90932,-5.492193 29.84888,12.655923 26.26701,-10.506804 -4.05945,-27.938547 -19.58086,-13.372296 z"
       id="path1" />
  </g>
</svg>
