<?xml version="1.0" encoding="UTF-8" standalone="no"?>
<!-- Created with Inkscape (http://www.inkscape.org/) -->

<svg
   width="135.02133"
   height="67.20034"
   viewBox="0 0 135.02133 67.200324"
   version="1.1"
   id="svg1"
   inkscape:version="1.3.2 (091e20e, 2023-11-25, custom)"
   sodipodi:docname="31_tottori.svg"
   xmlns:inkscape="http://www.inkscape.org/namespaces/inkscape"
   xmlns:sodipodi="http://sodipodi.sourceforge.net/DTD/sodipodi-0.dtd"
   xmlns:xlink="http://www.w3.org/1999/xlink"
   xmlns="http://www.w3.org/2000/svg"
   xmlns:svg="http://www.w3.org/2000/svg">
  <sodipodi:namedview
     id="namedview1"
     pagecolor="#ffffff"
     bordercolor="#000000"
     borderopacity="0.25"
     inkscape:showpageshadow="2"
     inkscape:pageopacity="0.0"
     inkscape:pagecheckerboard="0"
     inkscape:deskcolor="#d1d1d1"
     inkscape:document-units="px"
     inkscape:zoom="1.4805976"
     inkscape:cx="30.730834"
     inkscape:cy="62.474772"
     inkscape:window-width="1920"
     inkscape:window-height="1009"
     inkscape:window-x="-8"
     inkscape:window-y="-8"
     inkscape:window-maximized="1"
     inkscape:current-layer="layer1" />
  <defs
     id="defs1">
    <linearGradient
       id="linearGradient1"
       inkscape:collect="always">
      <stop
         style="stop-color:#000000;stop-opacity:1;"
         offset="0"
         id="stop1" />
      <stop
         style="stop-color:#676767;stop-opacity:1;"
         offset="1"
         id="stop2" />
    </linearGradient>
    <radialGradient
       inkscape:collect="always"
       xlink:href="#linearGradient1"
       id="radialGradient2"
       cx="102.68896"
       cy="43.17709"
       fx="102.68896"
       fy="43.17709"
       r="70.197889"
       gradientTransform="matrix(1,0,0,0.51301526,0,21.026584)"
       gradientUnits="userSpaceOnUse" />
  </defs>
  <g
     inkscape:label="Layer 1"
     inkscape:groupmode="layer"
     id="layer1"
     transform="translate(-35.169523,-9.4353035)">
    <path
       id="path38"
       style="display:inline;fill:url(#radialGradient2);fill-opacity:1;stroke:#ffffff;stroke-width:6;stroke-dasharray:none;stroke-linejoin:bevel;stroke-opacity:1"
       d="m 158.71394,9.8248042 -16.91356,8.8159678 h -7.59467 l -8.37468,2.87369 -6.94813,-1.826849 -8.24126,4.187313 -24.621147,-1.313675 -6.937848,-3.140471 -13.742271,4.721032 -3.79734,4.577317 h -5.634436 l -6.681267,-4.97762 -2.350249,-4.320729 -2.832614,0.471872 2.093672,4.064195 5.449697,6.044954 1.744728,3.243149 -0.585,7.666502 -1.734461,3.253395 -0.12317,7.666554 -11.8436,5.336779 1.631826,3.828154 -1.046831,4.413107 -4.177077,3.017354 1.046837,6.619713 8.118096,-0.112976 4.413128,1.395806 4.064185,-5.347077 8.364416,-1.734472 0.584995,-8.12839 5.685748,0.8108 5.808908,-2.319424 -0.933944,-4.998166 4.762072,-1.970512 3.951287,-9.873056 4.064185,1.744718 h 6.034676 l 7.081549,3.71523 6.15783,4.526031 9.05206,-10.447815 7.20466,-0.348912 v 4.28999 l 8.00522,1.169959 4.18737,4.751825 4.75177,9.062308 13.3523,-3.489436 5.23415,-3.828154 3.24315,0.759462 h 4.41311 l 4.53633,-3.776816 1.27258,-9.985979 -3.71523,-2.79156 -0.34891,-5.100737 -3.01735,-5.572872 z" />
    <path
       style="display:none;fill:none;fill-opacity:1;stroke:#000000;stroke-width:1;stroke-linejoin:bevel;stroke-dasharray:none;stroke-opacity:1"
       d="M 156.95293,10.86805 60.242578,27.105837 43.288417,17.554197 52.362475,33.075612 49.496983,52.178892 36.363478,67.222725 47.109073,76.535575 80.778604,48.835819 123.76098,46.92549 139.2824,61.969324 169.60885,47.641863 Z"
       id="path1"
       sodipodi:nodetypes="cccccccccccc" />
  </g>
</svg>
