<?xml version="1.0" encoding="UTF-8" standalone="no"?>
<!-- Created with Inkscape (http://www.inkscape.org/) -->

<svg
   width="118.02187"
   height="113.58796"
   viewBox="0 0 118.02187 113.58793"
   version="1.1"
   id="svg1"
   inkscape:version="1.3.2 (091e20e, 2023-11-25, custom)"
   sodipodi:docname="32_shimane.svg"
   xmlns:inkscape="http://www.inkscape.org/namespaces/inkscape"
   xmlns:sodipodi="http://sodipodi.sourceforge.net/DTD/sodipodi-0.dtd"
   xmlns:xlink="http://www.w3.org/1999/xlink"
   xmlns="http://www.w3.org/2000/svg"
   xmlns:svg="http://www.w3.org/2000/svg">
  <sodipodi:namedview
     id="namedview1"
     pagecolor="#ffffff"
     bordercolor="#000000"
     borderopacity="0.25"
     inkscape:showpageshadow="2"
     inkscape:pageopacity="0.0"
     inkscape:pagecheckerboard="0"
     inkscape:deskcolor="#d1d1d1"
     inkscape:document-units="px"
     inkscape:zoom="4.1877625"
     inkscape:cx="61.011101"
     inkscape:cy="100.41162"
     inkscape:window-width="1920"
     inkscape:window-height="1009"
     inkscape:window-x="-8"
     inkscape:window-y="-8"
     inkscape:window-maximized="1"
     inkscape:current-layer="layer1" />
  <defs
     id="defs1">
    <linearGradient
       id="linearGradient1"
       inkscape:collect="always">
      <stop
         style="stop-color:#000000;stop-opacity:1;"
         offset="0"
         id="stop1" />
      <stop
         style="stop-color:#4c4c4c;stop-opacity:1;"
         offset="1"
         id="stop2" />
    </linearGradient>
    <radialGradient
       inkscape:collect="always"
       xlink:href="#linearGradient1"
       id="radialGradient2"
       cx="121.98488"
       cy="23.933727"
       fx="121.98488"
       fy="23.933727"
       r="61.661768"
       gradientTransform="matrix(1,0,0,0.96023321,0,0.95176742)"
       gradientUnits="userSpaceOnUse" />
  </defs>
  <g
     inkscape:label="Layer 1"
     inkscape:groupmode="layer"
     id="layer1"
     transform="translate(-62.830054,33.251713)">
    <path
       id="path40"
       style="display:inline;fill:url(#radialGradient2);fill-opacity:1;stroke:#ffffff;stroke-width:6;stroke-dasharray:none;stroke-linejoin:bevel;stroke-opacity:1"
       d="m 166.01945,-32.976771 -5.95848,4.994248 -11.24647,4.037568 -4.7984,0.286175 -3.36718,1.9284 -0.58002,1.920879 -9.03186,1.920879 2.88508,2.787117 0.67043,4.512147 -2.20713,4.4217827 -9.99602,5.38594409 -6.34262,4.41422331 -1.62711,2.4029792 -1.83047,2.8850793 -5.86053,6.1542954 -6.05637,1.822955 -1.822953,4.610072 -6.824723,2.983003 -1.348376,4.80592 -4.225896,2.011283 -4.512147,6.25222 -5.001807,2.305055 -2.787155,6.056372 -10.071339,1.521623 1.611988,6.109094 -0.595066,3.585628 -2.048925,4.429304 1.958522,3.578069 -0.768352,2.900159 2.478303,1.107326 2.63647,-1.024482 1.280573,2.387899 -1.875639,4.941525 3.578069,4.685434 h 3.329498 l 4.429304,-2.124287 3.578069,-0.17317 3.065886,-4.263577 -0.421857,-4.768239 2.478303,-2.470782 0.248377,-4.007446 6.478229,-7.924529 0.339013,-3.073368 1.875677,-3.834238 -1.363456,-3.917043 5.02441,-3.668472 2.983,-3.495225 1.87564,1.024443 7.24658,0.51226 3.75136,-2.041404 1.19017,0.760792 7.32942,-0.08292 5.2805,-2.900121 2.56115,1.024443 4.26357,-2.470743 -1.61955,-3.834199 -3.66847,-1.280612 7.41227,-4.685395 5.28806,-7.2315 5.02437,-3.849279 5.11477,2.048925 2.04893,-1.453821 2.80975,1.875678 8.01489,0.256091 -0.76835,-4.8586807 3.06589,-2.2146517 0.76831,-3.2390949 -1.19769,-2.80975594 8.69284,-3.91704326 0.0902,-5.6270326 1.27305,-2.3878989 0.42938,-5.626994 -1.28057,-2.380379 -3.99993,-4.436824 -1.5367,-2.983003 2.07908,-0.346341 4.42175,-1.250452 0.098,-2.493382 -11.44235,1.242931 z" />
    <path
       style="display:none;fill:none;stroke:#000000;stroke-width:0.5;stroke-linejoin:bevel;stroke-dasharray:none;stroke-opacity:1"
       d="m 165.51018,-33.490504 -35.34106,15.521415 5.2534,10.268013 -71.637302,56.354676 7.402521,31.042827 15.282624,-4.77582 13.133505,-34.385901 37.251392,-6.686148 41.78843,-35.81865 1.43274,-28.65492 z"
       id="path1" />
  </g>
</svg>
