<?xml version="1.0" encoding="UTF-8" standalone="no"?>
<!-- Created with Inkscape (http://www.inkscape.org/) -->

<svg
   width="78.452126"
   height="75.683624"
   viewBox="0 0 78.452125 75.683606"
   version="1.1"
   id="svg1"
   inkscape:version="1.3.2 (091e20e, 2023-11-25, custom)"
   sodipodi:docname="33_okayama.svg"
   xmlns:inkscape="http://www.inkscape.org/namespaces/inkscape"
   xmlns:sodipodi="http://sodipodi.sourceforge.net/DTD/sodipodi-0.dtd"
   xmlns:xlink="http://www.w3.org/1999/xlink"
   xmlns="http://www.w3.org/2000/svg"
   xmlns:svg="http://www.w3.org/2000/svg">
  <sodipodi:namedview
     id="namedview1"
     pagecolor="#ffffff"
     bordercolor="#000000"
     borderopacity="0.25"
     inkscape:showpageshadow="2"
     inkscape:pageopacity="0.0"
     inkscape:pagecheckerboard="0"
     inkscape:deskcolor="#d1d1d1"
     inkscape:document-units="px"
     inkscape:zoom="4.1877625"
     inkscape:cx="34.147113"
     inkscape:cy="64.354175"
     inkscape:window-width="1920"
     inkscape:window-height="1009"
     inkscape:window-x="-8"
     inkscape:window-y="-8"
     inkscape:window-maximized="1"
     inkscape:current-layer="layer1" />
  <defs
     id="defs1">
    <linearGradient
       id="linearGradient1"
       inkscape:collect="always">
      <stop
         style="stop-color:#000000;stop-opacity:1;"
         offset="0"
         id="stop1" />
      <stop
         style="stop-color:#4e4e4e;stop-opacity:1;"
         offset="1"
         id="stop2" />
    </linearGradient>
    <radialGradient
       inkscape:collect="always"
       xlink:href="#linearGradient1"
       id="radialGradient2"
       cx="128.93317"
       cy="40.60179"
       fx="128.93317"
       fy="40.60179"
       r="41.545009"
       gradientTransform="matrix(1,0,0,0.97695087,0,0.93583588)"
       gradientUnits="userSpaceOnUse" />
  </defs>
  <g
     inkscape:label="Layer 1"
     inkscape:groupmode="layer"
     id="layer1"
     transform="translate(-89.540515,-2.8165851)">
    <path
       id="path31"
       style="display:inline;fill:url(#radialGradient2);fill-opacity:1;stroke:#ffffff;stroke-width:6;stroke-dasharray:none;stroke-linejoin:bevel;stroke-opacity:1"
       d="m 167.72703,11.968421 -2.28455,-0.534992 -3.68716,2.696689 -9.40581,2.458085 -3.34735,-6.383817 -2.94973,-3.3473564 -5.63913,-0.8241612 V 3.0108451 l -5.07527,0.2457863 -6.37656,7.3598176 -4.33783,-3.1882995 -4.98846,-2.6171423 h -4.25107 l -2.86296,-1.2290422 -2.78342,6.954936 -3.35457,1.3881 0.65788,3.520888 -4.09201,1.633886 -4.005238,-0.571157 -0.4121,5.725931 -5.892169,1.221825 -2.862966,3.766674 3.846185,4.663127 -1.554376,3.434123 0.491609,6.947718 1.229079,2.458084 2.942476,3.679909 -0.491646,7.60564 2.291808,4.092008 -0.816943,5.154774 2.862961,2.205043 1.46762,3.679909 -0.15917,5.198157 1.95204,1.952002 8.67562,-2.349628 0.19507,-1.561631 5.0897,-0.976001 4.49686,2.667743 8.48044,0.13733 5.08244,1.691742 1.24352,-6.391035 4.49685,-2.935257 0.84589,-2.674999 5.74036,-0.39037 4.2366,-2.935258 v -3.065406 l 5.4801,-2.674961 1.17845,-3.911259 2.15444,1.077203 0.85311,-4.287193 -3.52085,-3.679909 -1.14232,-3.275065 2.04602,-3.021986 -1.88696,-3.029241 0.98326,-5.805442 3.10875,-4.496888 2.2123,-6.383817 3.6799,-1.229042 -1.06276,-4.251066 z" />
    <path
       style="display:none;fill:none;stroke:#000000;stroke-width:0.5;stroke-linejoin:bevel;stroke-dasharray:none;stroke-opacity:1"
       d="m 90.018097,25.740521 12.655923,52.295229 32.23678,-1.552142 27.22218,-23.282122 4.53703,-42.98238 -53.0116,-6.2085659 z"
       id="path1"
       sodipodi:nodetypes="ccccccc" />
  </g>
</svg>
