<?xml version="1.0" encoding="UTF-8" standalone="no"?>
<!-- Created with Inkscape (http://www.inkscape.org/) -->

<svg
   width="99.877831"
   height="76.488373"
   viewBox="0 0 99.87783 76.488353"
   version="1.1"
   id="svg1"
   inkscape:version="1.3.2 (091e20e, 2023-11-25, custom)"
   sodipodi:docname="36_tokushima.svg"
   xmlns:inkscape="http://www.inkscape.org/namespaces/inkscape"
   xmlns:sodipodi="http://sodipodi.sourceforge.net/DTD/sodipodi-0.dtd"
   xmlns:xlink="http://www.w3.org/1999/xlink"
   xmlns="http://www.w3.org/2000/svg"
   xmlns:svg="http://www.w3.org/2000/svg">
  <sodipodi:namedview
     id="namedview1"
     pagecolor="#ffffff"
     bordercolor="#000000"
     borderopacity="0.25"
     inkscape:showpageshadow="2"
     inkscape:pageopacity="0.0"
     inkscape:pagecheckerboard="0"
     inkscape:deskcolor="#d1d1d1"
     inkscape:document-units="px"
     inkscape:zoom="4.1877625"
     inkscape:cx="29.72948"
     inkscape:cy="39.042329"
     inkscape:window-width="1920"
     inkscape:window-height="1009"
     inkscape:window-x="-8"
     inkscape:window-y="-8"
     inkscape:window-maximized="1"
     inkscape:current-layer="layer1" />
  <defs
     id="defs1">
    <linearGradient
       id="linearGradient1"
       inkscape:collect="always">
      <stop
         style="stop-color:#000000;stop-opacity:1;"
         offset="0"
         id="stop1" />
      <stop
         style="stop-color:#4d4d4d;stop-opacity:1;"
         offset="1"
         id="stop2" />
    </linearGradient>
    <radialGradient
       inkscape:collect="always"
       xlink:href="#linearGradient1"
       id="radialGradient2"
       cx="143.08477"
       cy="9.334217"
       fx="143.08477"
       fy="9.334217"
       r="51.268752"
       gradientTransform="matrix(1,0,0,0.78874143,0,1.9719333)"
       gradientUnits="userSpaceOnUse" />
  </defs>
  <g
     inkscape:label="Layer 1"
     inkscape:groupmode="layer"
     id="layer1"
     transform="translate(-94.01844,29.016593)">
    <path
       id="path2989"
       style="display:inline;fill:url(#radialGradient2);stroke:#ffffff;stroke-width:6;stroke-linecap:butt;stroke-linejoin:bevel;stroke-opacity:1;stroke-dasharray:none"
       d="m 173.80058,-28.298627 -5.01487,1.90245 -2.34631,0.07857 -2.15105,5.456214 -15.56703,-1.90245 -10.54967,2.074935 -1.55749,6.227324 -6.9198,-0.172483 -4.49736,4.149857 -4.32237,-0.172484 -2.42244,-4.669857 -11.76218,3.977373 -8.127223,7.2647914 -3.114948,0.3475043 0.692505,8.8197263 -1.382458,6.91981 7.954774,3.457371 7.95729,0.6925 4.49735,4.497373 5.18732,-2.074934 0.6925,-2.594937 7.09229,1.209951 4.66989,14.3571 6.74476,0.692495 1.72994,3.112391 -2.59488,4.497373 5.18986,6.052308 8.84761,0.885266 2.567,-3.825173 4.84238,-2.76742 3.80485,-6.572306 11.76219,-6.054837 1.20997,-4.322356 15.73952,-8.474742 -2.76742,-1.904974 -3.45737,1.384972 -2.76742,-2.594924 4.32237,-5.1873244 V 2.1429382 l -8.47475,-5.5348396 -1.38246,-7.4372766 4.14988,-12.454661 z" />
    <path
       style="display:none;fill:none;stroke:#0d0d0d;stroke-width:0.5;stroke-linejoin:bevel;stroke-dasharray:none;stroke-opacity:1"
       d="m 178.31166,-27.583847 -83.576847,23.640309 0.955164,18.386907 32.475573,4.298238 18.38691,28.177338 44.41513,-32.475576 z"
       id="path1" />
  </g>
</svg>
