<?xml version="1.0" encoding="UTF-8" standalone="no"?>
<!-- Created with Inkscape (http://www.inkscape.org/) -->

<svg
   width="95.556747"
   height="85.602417"
   viewBox="0 0 95.55675 85.602396"
   version="1.1"
   id="svg1"
   inkscape:version="1.3.2 (091e20e, 2023-11-25, custom)"
   sodipodi:docname="41_saga.svg"
   xmlns:inkscape="http://www.inkscape.org/namespaces/inkscape"
   xmlns:sodipodi="http://sodipodi.sourceforge.net/DTD/sodipodi-0.dtd"
   xmlns:xlink="http://www.w3.org/1999/xlink"
   xmlns="http://www.w3.org/2000/svg"
   xmlns:svg="http://www.w3.org/2000/svg">
  <sodipodi:namedview
     id="namedview1"
     pagecolor="#ffffff"
     bordercolor="#000000"
     borderopacity="0.25"
     inkscape:showpageshadow="2"
     inkscape:pageopacity="0.0"
     inkscape:pagecheckerboard="0"
     inkscape:deskcolor="#d1d1d1"
     inkscape:document-units="px"
     inkscape:zoom="4.569415"
     inkscape:cx="0.98480877"
     inkscape:cy="64.231417"
     inkscape:window-width="1920"
     inkscape:window-height="1009"
     inkscape:window-x="-8"
     inkscape:window-y="-8"
     inkscape:window-maximized="1"
     inkscape:current-layer="layer1" />
  <defs
     id="defs1">
    <linearGradient
       id="linearGradient1"
       inkscape:collect="always">
      <stop
         style="stop-color:#000000;stop-opacity:1;"
         offset="0"
         id="stop1" />
      <stop
         style="stop-color:#4d4d4d;stop-opacity:1;"
         offset="1"
         id="stop2" />
    </linearGradient>
    <radialGradient
       inkscape:collect="always"
       xlink:href="#linearGradient1"
       id="radialGradient2"
       cx="69.36202"
       cy="-26.855785"
       fx="69.36202"
       fy="-26.855785"
       r="50.130137"
       gradientTransform="matrix(1,0,0,0.90368763,0,-2.5865444)"
       gradientUnits="userSpaceOnUse" />
  </defs>
  <g
     inkscape:label="Layer 1"
     inkscape:groupmode="layer"
     id="layer1"
     transform="translate(-21.262507,69.733389)">
    <path
       id="path43"
       style="display:inline;fill:url(#radialGradient2);stroke:#ffffff;stroke-width:6;stroke-dasharray:none;stroke-opacity:1;stroke-linejoin:bevel"
       d="m 37.921896,-69.384978 -4.610063,1.904124 -1.803937,7.21575 3.207,5.411812 -0.901969,2.705939 -5.812687,-6.113376 -1.503282,3.507688 2.204813,4.209188 4.710281,1.904124 0.901969,3.808312 -5.010938,-2.004375 -0.701531,4.8105 4.910719,2.204813 0.200437,4.910751 2.004375,4.108936 -7.817062,-5.712436 -1.002188,-2.40525 -5.211375,7.416187 3.808313,3.507624 6.714656,12.427125 6.814875,3.006563 5.010938,-1.302812 1.803937,4.6100628 -2.40525,4.3093742 9.019688,13.228875 9.320343,4.710313 14.819849,2.49293 -0.18793,-5.7751018 -7.015313,-13.7550154 -4.710281,-2.9063758 7.416187,-2.40525 3.106782,-3.407438 2.806125,-5.411812 5.211375,1.403062 3.207,4.8105 7.817062,0.902001 -1.6035,-6.614437 2.40525,-2.806125 -0.200437,-2.806125 4.8105,-4.209188 5.010933,-1.6035 2.00438,-5.411812 9.82144,-6.013125 -0.20044,-7.015313 -3.00656,-4.409625 -7.61663,0.200117 -1.80394,5.010938 -2.80612,0.400875 -15.032813,-12.427125 -9.621,0.200116 -3.207,1.403063 -19.041563,-1.904188 -0.100251,5.311625 -7.416187,-1.403062 -3.307219,-3.870977 2.004375,-4.146523 -0.300624,-3.106813 z" />
    <path
       style="display:none;fill:none;stroke:#252525;stroke-width:0.5;stroke-linejoin:bevel;stroke-dasharray:none;stroke-opacity:1"
       d="M 37.739086,-69.494598 21.97888,-30.332874 50.395009,9.067641 c 0,0 27.938547,8.118894 26.983383,7.16373 -0.955164,-0.955164 -8.835267,-21.252399 -7.880103,-21.252399 0.955164,0 22.685145,-4.298238 23.8791,-6.447357 1.193955,-2.149119 24.356681,-34.863486 24.356681,-34.863486 z"
       id="path1" />
  </g>
</svg>
