<?xml version="1.0" encoding="UTF-8" standalone="no"?>
<!-- Created with Inkscape (http://www.inkscape.org/) -->

<svg
   width="126.9634"
   height="165.19151"
   viewBox="0 0 126.9634 165.19147"
   version="1.1"
   id="svg1"
   inkscape:version="1.3.2 (091e20e, 2023-11-25, custom)"
   sodipodi:docname="47_okinawa.svg"
   xmlns:inkscape="http://www.inkscape.org/namespaces/inkscape"
   xmlns:sodipodi="http://sodipodi.sourceforge.net/DTD/sodipodi-0.dtd"
   xmlns:xlink="http://www.w3.org/1999/xlink"
   xmlns="http://www.w3.org/2000/svg"
   xmlns:svg="http://www.w3.org/2000/svg">
  <sodipodi:namedview
     id="namedview1"
     pagecolor="#ffffff"
     bordercolor="#000000"
     borderopacity="0.25"
     inkscape:showpageshadow="2"
     inkscape:pageopacity="0.0"
     inkscape:pagecheckerboard="0"
     inkscape:deskcolor="#d1d1d1"
     inkscape:document-units="px"
     inkscape:zoom="4.1877625"
     inkscape:cx="35.221673"
     inkscape:cy="71.517905"
     inkscape:window-width="1920"
     inkscape:window-height="1009"
     inkscape:window-x="-8"
     inkscape:window-y="-8"
     inkscape:window-maximized="1"
     inkscape:current-layer="layer1" />
  <defs
     id="defs1">
    <linearGradient
       id="linearGradient1"
       inkscape:collect="always">
      <stop
         style="stop-color:#000000;stop-opacity:1;"
         offset="0"
         id="stop1" />
      <stop
         style="stop-color:#4d4d4d;stop-opacity:1;"
         offset="1"
         id="stop2" />
    </linearGradient>
    <radialGradient
       inkscape:collect="always"
       xlink:href="#linearGradient1"
       id="radialGradient2"
       cx="152.00526"
       cy="20.679819"
       fx="152.00526"
       fy="20.679819"
       r="66.040856"
       gradientTransform="matrix(1,0,0,1.306212,0,-6.332409)"
       gradientUnits="userSpaceOnUse" />
  </defs>
  <g
     inkscape:label="Layer 1"
     inkscape:groupmode="layer"
     id="layer1"
     transform="translate(-88.555375,61.715843)">
    <path
       style="display:inline;fill:url(#radialGradient2);stroke:#ffffff;stroke-width:6;stroke-dasharray:none;stroke-opacity:1;stroke-linejoin:bevel"
       d="m 201.51147,-60.925936 -3.14796,15.290006 -6.97035,11.467506 -12.8167,11.467505 v 6.295909 l -18.88773,6.295909 -6.74557,-7.645004 1.34909,-4.722033 -13.94091,-2.02354 -7.19524,0.449766 3.59762,16.6391012 11.24262,6.2959092 1.79886,7.1953392 -16.18944,8.9940974 -17.76341,15.065226 -12.8167,0.449766 -0.44977,11.242622 5.84615,15.065226 -3.14796,5.846143 -6.745673,7.195339 -3.597619,4.946815 -5.396479,4.497049 -0.449766,3.597618 3.147955,4.497049 0.899532,9.443864 2.69829,5.846248 23.38467,-12.816704 1.79886,-5.171596 -7.19523,-5.396479 -3.14796,-7.645004 16.18934,-18.437961 9.89363,1.349094 3.14795,-4.946815 -9.02818,-1.102333 -5.81216,-11.489383 v -5.846245 l 5.84624,-4.497049 6.74558,3.597619 8.54443,-1.798759 7.645,-10.343293 13.04149,-7.645004 -2.24853,-3.5976185 10.34319,-1.3491961 7.64501,-4.94671305 3.14795,-9.44386365 15.29011,-5.3964787 13.94091,-19.787056 -0.89953,-19.787157 z"
       id="path48"
       sodipodi:nodetypes="ccccccccccccccccccccccccccccccccccccccccccccccccc" />
    <path
       style="display:none;fill:none;stroke:#000000;stroke-width:0.5;stroke-linejoin:bevel;stroke-dasharray:none;stroke-opacity:1"
       d="m 200.54836,-60.99947 -23.16273,40.833261 -46.08667,-3.343074 13.3723,31.04283 -42.74359,23.8791 -11.939549,67.81664 30.804039,-8.11889 26.74459,-63.757197 54.44436,-40.833261 12.65591,-30.565248 z"
       id="path1" />
  </g>
</svg>
