<?xml version="1.0" encoding="UTF-8" standalone="no"?>
<!-- Created with Inkscape (http://www.inkscape.org/) -->

<svg
   width="1280"
   height="720"
   viewBox="0 0 1280 720.00003"
   version="1.1"
   id="svg1"
   inkscape:version="1.4 (86a8ad7, 2024-10-11)"
   sodipodi:docname="front.svg"
   xml:space="preserve"
   xmlns:inkscape="http://www.inkscape.org/namespaces/inkscape"
   xmlns:sodipodi="http://sodipodi.sourceforge.net/DTD/sodipodi-0.dtd"
   xmlns:xlink="http://www.w3.org/1999/xlink"
   xmlns="http://www.w3.org/2000/svg"
   xmlns:svg="http://www.w3.org/2000/svg"><sodipodi:namedview
     id="namedview1"
     pagecolor="#eeeeee"
     bordercolor="#000000"
     borderopacity="0.25"
     inkscape:showpageshadow="2"
     inkscape:pageopacity="0.0"
     inkscape:pagecheckerboard="0"
     inkscape:deskcolor="#d1d1d1"
     inkscape:document-units="px"
     inkscape:zoom="2"
     inkscape:cx="168.75"
     inkscape:cy="309.75"
     inkscape:window-width="1920"
     inkscape:window-height="1009"
     inkscape:window-x="-8"
     inkscape:window-y="-8"
     inkscape:window-maximized="1"
     inkscape:current-layer="g75"
     inkscape:pageshadow="2"
     showgrid="false" /><defs
     id="defs1"><rect
       x="829.67033"
       y="218.63968"
       width="133.18519"
       height="43.097245"
       id="rect319" /></defs><g
     inkscape:groupmode="layer"
     id="layer3"
     inkscape:label="background"
     style="display:none"><rect
       style="display:inline;fill:#e5e5e5;fill-opacity:1;stroke:none;stroke-width:1;stroke-linejoin:bevel;stroke-dasharray:none;stroke-opacity:1"
       id="rect318"
       width="1280.2168"
       height="720.2168"
       x="-0.21679688"
       y="-0.21679688" /><g
       inkscape:groupmode="layer"
       id="layer1"
       inkscape:label="Layer 2"
       style="display:inline"><text
         xml:space="preserve"
         id="text318"
         style="font-style:normal;font-variant:normal;font-weight:bold;font-stretch:normal;font-size:8px;font-family:Arial;-inkscape-font-specification:'Arial, Bold';font-variant-ligatures:normal;font-variant-caps:normal;font-variant-numeric:normal;font-variant-east-asian:normal;text-align:start;writing-mode:lr-tb;direction:ltr;white-space:pre;shape-inside:url(#rect319);display:inline;fill:#d9d9d9;fill-opacity:1;stroke:none;stroke-width:1;stroke-linejoin:bevel;stroke-dasharray:none;stroke-opacity:1"
         transform="translate(-975.06127,-407.6198)"
         inkscape:tile-cx="850.80234"
         inkscape:tile-cy="210.77587"
         inkscape:tile-w="29.273438"
         inkscape:tile-h="9.0820312"
         inkscape:tile-x0="836.16562"
         inkscape:tile-y0="206.23485"><tspan
           x="829.66992"
           y="225.84666"
           id="tspan1">4170</tspan></text><use
         x="0"
         y="0"
         inkscape:tiled-clone-of="#text318"
         xlink:href="#text318"
         id="use1163"
         width="100%"
         height="100%" /><use
         x="0"
         y="0"
         inkscape:tiled-clone-of="#text318"
         xlink:href="#text318"
         transform="translate(0,195.26367)"
         id="use1164"
         width="100%"
         height="100%" /><use
         x="0"
         y="0"
         inkscape:tiled-clone-of="#text318"
         xlink:href="#text318"
         transform="translate(0,390.52734)"
         id="use1165"
         width="100%"
         height="100%" /><use
         x="0"
         y="0"
         inkscape:tiled-clone-of="#text318"
         xlink:href="#text318"
         transform="translate(0,585.79101)"
         id="use1166"
         width="100%"
         height="100%" /><use
         x="0"
         y="0"
         inkscape:tiled-clone-of="#text318"
         xlink:href="#text318"
         transform="translate(0,781.05468)"
         id="use1167"
         width="100%"
         height="100%" /><use
         x="0"
         y="0"
         inkscape:tiled-clone-of="#text318"
         xlink:href="#text318"
         transform="translate(195.10746)"
         id="use1168"
         width="100%"
         height="100%" /><use
         x="0"
         y="0"
         inkscape:tiled-clone-of="#text318"
         xlink:href="#text318"
         transform="translate(195.10746,195.26367)"
         id="use1169"
         width="100%"
         height="100%" /><use
         x="0"
         y="0"
         inkscape:tiled-clone-of="#text318"
         xlink:href="#text318"
         transform="translate(195.10746,390.52734)"
         id="use1170"
         width="100%"
         height="100%" /><use
         x="0"
         y="0"
         inkscape:tiled-clone-of="#text318"
         xlink:href="#text318"
         transform="translate(195.10746,585.79101)"
         id="use1171"
         width="100%"
         height="100%" /><use
         x="0"
         y="0"
         inkscape:tiled-clone-of="#text318"
         xlink:href="#text318"
         transform="translate(195.10746,781.05468)"
         id="use1172"
         width="100%"
         height="100%" /><use
         x="0"
         y="0"
         inkscape:tiled-clone-of="#text318"
         xlink:href="#text318"
         transform="translate(390.21493)"
         id="use1173"
         width="100%"
         height="100%" /><use
         x="0"
         y="0"
         inkscape:tiled-clone-of="#text318"
         xlink:href="#text318"
         transform="translate(390.21493,195.26367)"
         id="use1174"
         width="100%"
         height="100%" /><use
         x="0"
         y="0"
         inkscape:tiled-clone-of="#text318"
         xlink:href="#text318"
         transform="translate(390.21493,390.52734)"
         id="use1175"
         width="100%"
         height="100%" /><use
         x="0"
         y="0"
         inkscape:tiled-clone-of="#text318"
         xlink:href="#text318"
         transform="translate(390.21493,585.79101)"
         id="use1176"
         width="100%"
         height="100%" /><use
         x="0"
         y="0"
         inkscape:tiled-clone-of="#text318"
         xlink:href="#text318"
         transform="translate(390.21493,781.05468)"
         id="use1177"
         width="100%"
         height="100%" /><use
         x="0"
         y="0"
         inkscape:tiled-clone-of="#text318"
         xlink:href="#text318"
         transform="translate(585.32239)"
         id="use1178"
         width="100%"
         height="100%" /><use
         x="0"
         y="0"
         inkscape:tiled-clone-of="#text318"
         xlink:href="#text318"
         transform="translate(585.32239,195.26367)"
         id="use1179"
         width="100%"
         height="100%" /><use
         x="0"
         y="0"
         inkscape:tiled-clone-of="#text318"
         xlink:href="#text318"
         transform="translate(585.32239,390.52734)"
         id="use1180"
         width="100%"
         height="100%" /><use
         x="0"
         y="0"
         inkscape:tiled-clone-of="#text318"
         xlink:href="#text318"
         transform="translate(585.32239,585.79101)"
         id="use1181"
         width="100%"
         height="100%" /><use
         x="0"
         y="0"
         inkscape:tiled-clone-of="#text318"
         xlink:href="#text318"
         transform="translate(585.32239,781.05468)"
         id="use1182"
         width="100%"
         height="100%" /><use
         x="0"
         y="0"
         inkscape:tiled-clone-of="#text318"
         xlink:href="#text318"
         transform="translate(780.42986)"
         id="use1183"
         width="100%"
         height="100%" /><use
         x="0"
         y="0"
         inkscape:tiled-clone-of="#text318"
         xlink:href="#text318"
         transform="translate(780.42986,195.26367)"
         id="use1184"
         width="100%"
         height="100%" /><use
         x="0"
         y="0"
         inkscape:tiled-clone-of="#text318"
         xlink:href="#text318"
         transform="translate(780.42986,390.52734)"
         id="use1185"
         width="100%"
         height="100%" /><use
         x="0"
         y="0"
         inkscape:tiled-clone-of="#text318"
         xlink:href="#text318"
         transform="translate(780.42986,585.79101)"
         id="use1186"
         width="100%"
         height="100%" /><use
         x="0"
         y="0"
         inkscape:tiled-clone-of="#text318"
         xlink:href="#text318"
         transform="translate(780.42986,781.05468)"
         id="use1187"
         width="100%"
         height="100%" /><use
         x="0"
         y="0"
         inkscape:tiled-clone-of="#text318"
         xlink:href="#text318"
         transform="translate(975.53732)"
         id="use1188"
         width="100%"
         height="100%" /><use
         x="0"
         y="0"
         inkscape:tiled-clone-of="#text318"
         xlink:href="#text318"
         transform="translate(975.53732,195.26367)"
         id="use1189"
         width="100%"
         height="100%" /><use
         x="0"
         y="0"
         inkscape:tiled-clone-of="#text318"
         xlink:href="#text318"
         transform="translate(975.53732,390.52734)"
         id="use1190"
         width="100%"
         height="100%" /><use
         x="0"
         y="0"
         inkscape:tiled-clone-of="#text318"
         xlink:href="#text318"
         transform="translate(975.53732,585.79101)"
         id="use1191"
         width="100%"
         height="100%" /><use
         x="0"
         y="0"
         inkscape:tiled-clone-of="#text318"
         xlink:href="#text318"
         transform="translate(975.53732,781.05468)"
         id="use1192"
         width="100%"
         height="100%" /><use
         x="0"
         y="0"
         inkscape:tiled-clone-of="#text318"
         xlink:href="#text318"
         transform="translate(1170.6448)"
         id="use1193"
         width="100%"
         height="100%" /><use
         x="0"
         y="0"
         inkscape:tiled-clone-of="#text318"
         xlink:href="#text318"
         transform="translate(1170.6448,195.26367)"
         id="use1194"
         width="100%"
         height="100%" /><use
         x="0"
         y="0"
         inkscape:tiled-clone-of="#text318"
         xlink:href="#text318"
         transform="translate(1170.6448,390.52734)"
         id="use1195"
         width="100%"
         height="100%" /><use
         x="0"
         y="0"
         inkscape:tiled-clone-of="#text318"
         xlink:href="#text318"
         transform="translate(1170.6448,585.79101)"
         id="use1196"
         width="100%"
         height="100%" /><use
         x="0"
         y="0"
         inkscape:tiled-clone-of="#text318"
         xlink:href="#text318"
         transform="translate(1170.6448,781.05468)"
         id="use1197"
         width="100%"
         height="100%" /></g><path
       d="m -340.4037,-187.539 -10e-6,1404.0889 m 195.01236,-1404.0889 -1e-5,1404.0889 M 49.62099,-187.539 l -10e-6,1404.0889 m 195.01236,-1404.0889 -1e-5,1404.0889 m 195.01236,-1404.0889 -2e-5,1404.0889 m 195.01237,-1404.0889 -2e-5,1404.0888 m 195.0123,-1404.08879 2e-5,1404.08879 m 195.01236,-1404.08878 10e-5,1404.08888 m 195.0122,-1404.08888 10e-5,1404.08888 M 1414.7074,-187.539 V 1216.5499 M 1609.7199,-187.539 v 1404.0889 m 195.0122,-1404.08889 -10e-5,1404.08889 m 195.0125,-1404.08889 -10e-5,1404.08889 M -340.4037,-187.539 l 2496.158,10e-6 m -2496.158,195.0123482 2496.158,-4e-6 M -340.4037,202.48569 h 2496.158 m -2496.158,195.01236 h 2496.158 M -340.4037,592.5104 h 2496.158 m -2496.158,195.01231 2496.158,-5e-5 M -340.4037,982.53504 H 2155.7542 M -340.40371,1177.5474 H 2155.7542"
       style="display:inline;fill:none;stroke:#d9d9d9;stroke-width:1;stroke-dasharray:none;stroke-opacity:1"
       id="path318" /><g
       inkscape:groupmode="layer"
       id="layer4"
       inkscape:label="checker"
       transform="translate(8.18275,-2.5492281)"><rect
         style="fill:#2b2b2b;fill-opacity:1;stroke:#7f7f7f;stroke-width:1.30407;stroke-linecap:square;stroke-linejoin:round;stroke-dasharray:none;stroke-opacity:1"
         id="rect76"
         width="40"
         height="120"
         x="976.5"
         y="487.05469" /><path
         id="rect75"
         style="display:inline;fill:#ffffff;fill-opacity:1;stroke:none;stroke-width:1;stroke-linecap:square;stroke-linejoin:round;stroke-dasharray:none;stroke-opacity:1"
         d="m 976.5,487.05469 v 20 h 20 v -20 z m 20,20 v 20 h 20 v -20 z m 0,20 h -20 v 20 h 20 z m 0,20 v 20 h 20 v -20 z m 0,20 h -20 v 20 h 20 z m 0,20 v 20 h 20 v -20 z" /></g><g
       inkscape:groupmode="layer"
       id="layer6"
       inkscape:label="arrows"><path
         id="rect2-1"
         style="display:inline;fill:#cbcbcb;fill-opacity:1;stroke:none;stroke-width:1.80152;stroke-linecap:square;stroke-linejoin:miter;stroke-dasharray:none;stroke-opacity:1"
         d="M 72.852362,411.79446 H 22.517244 L 47.684802,386.6269 Z"
         sodipodi:nodetypes="cccc" /><path
         id="rect2-1-5"
         style="display:inline;fill:#cbcbcb;fill-opacity:1;stroke:none;stroke-width:1.80152;stroke-linecap:square;stroke-linejoin:miter;stroke-dasharray:none;stroke-opacity:1"
         d="M 72.852362,448.90665 H 22.517244 l 25.167558,-25.16756 z"
         sodipodi:nodetypes="cccc" /><path
         id="rect2-1-5-6"
         style="display:inline;fill:#cbcbcb;fill-opacity:1;stroke:none;stroke-width:1.80152;stroke-linecap:square;stroke-linejoin:miter;stroke-dasharray:none;stroke-opacity:1"
         d="M 72.852362,486.01883 H 22.517244 l 25.167558,-25.16756 z"
         sodipodi:nodetypes="cccc" /><path
         id="rect2-1-5-8"
         style="display:inline;fill:#cbcbcb;fill-opacity:1;stroke:none;stroke-width:1.80152;stroke-linecap:square;stroke-linejoin:miter;stroke-dasharray:none;stroke-opacity:1"
         d="M 72.852362,523.13102 H 22.517244 l 25.167558,-25.16756 z"
         sodipodi:nodetypes="cccc" /><path
         id="rect2-1-9"
         style="display:inline;fill:#cbcbcb;fill-opacity:1;stroke:none;stroke-width:1.80152;stroke-linecap:square;stroke-linejoin:miter;stroke-dasharray:none;stroke-opacity:1"
         d="M 72.852362,263.34571 H 22.517244 l 25.167558,-25.16756 z"
         sodipodi:nodetypes="cccc" /><path
         id="rect2-1-5-0"
         style="display:inline;fill:#cbcbcb;fill-opacity:1;stroke:none;stroke-width:1.80152;stroke-linecap:square;stroke-linejoin:miter;stroke-dasharray:none;stroke-opacity:1"
         d="M 72.852362,300.4579 H 22.517244 l 25.167558,-25.16756 z"
         sodipodi:nodetypes="cccc" /><path
         id="rect2-1-5-6-0"
         style="display:inline;fill:#cbcbcb;fill-opacity:1;stroke:none;stroke-width:1.80152;stroke-linecap:square;stroke-linejoin:miter;stroke-dasharray:none;stroke-opacity:1"
         d="M 72.852362,337.57008 H 22.517244 l 25.167558,-25.16756 z"
         sodipodi:nodetypes="cccc" /><path
         id="rect2-1-5-8-6"
         style="display:inline;fill:#cbcbcb;fill-opacity:1;stroke:none;stroke-width:1.80152;stroke-linecap:square;stroke-linejoin:miter;stroke-dasharray:none;stroke-opacity:1"
         d="M 72.852362,374.68227 H 22.517244 l 25.167558,-25.16756 z"
         sodipodi:nodetypes="cccc" /><path
         id="rect2-1-93"
         style="display:inline;fill:#cbcbcb;fill-opacity:1;stroke:none;stroke-width:1.80152;stroke-linecap:square;stroke-linejoin:miter;stroke-dasharray:none;stroke-opacity:1"
         d="M 72.852362,114.89696 H 22.517244 L 47.684802,89.729401 Z"
         sodipodi:nodetypes="cccc" /><path
         id="rect2-1-5-4"
         style="display:inline;fill:#cbcbcb;fill-opacity:1;stroke:none;stroke-width:1.80152;stroke-linecap:square;stroke-linejoin:miter;stroke-dasharray:none;stroke-opacity:1"
         d="M 72.852362,152.00915 H 22.517244 l 25.167558,-25.16756 z"
         sodipodi:nodetypes="cccc" /><path
         id="rect2-1-5-6-4"
         style="display:inline;fill:#cbcbcb;fill-opacity:1;stroke:none;stroke-width:1.80152;stroke-linecap:square;stroke-linejoin:miter;stroke-dasharray:none;stroke-opacity:1"
         d="M 72.852362,189.12133 H 22.517244 l 25.167558,-25.16756 z"
         sodipodi:nodetypes="cccc" /><path
         id="rect2-1-5-8-60"
         style="display:inline;fill:#cbcbcb;fill-opacity:1;stroke:none;stroke-width:1.80152;stroke-linecap:square;stroke-linejoin:miter;stroke-dasharray:none;stroke-opacity:1"
         d="M 72.852362,226.23352 H 22.517244 l 25.167558,-25.16756 z"
         sodipodi:nodetypes="cccc" /><path
         id="rect2-1-2"
         style="display:inline;fill:#cbcbcb;fill-opacity:1;stroke:none;stroke-width:1.80152;stroke-linecap:square;stroke-linejoin:miter;stroke-dasharray:none;stroke-opacity:1"
         d="M 72.852361,560.24321 H 22.517245 l 25.167558,-25.16756 z"
         sodipodi:nodetypes="cccc" /><path
         id="rect2-1-5-9"
         style="display:inline;fill:#cbcbcb;fill-opacity:1;stroke:none;stroke-width:1.80152;stroke-linecap:square;stroke-linejoin:miter;stroke-dasharray:none;stroke-opacity:1"
         d="M 72.852363,597.3554 H 22.517243 L 47.684801,572.18784 Z"
         sodipodi:nodetypes="cccc" /><path
         id="rect2-1-5-6-1"
         style="display:inline;fill:#cbcbcb;fill-opacity:1;stroke:none;stroke-width:1.80152;stroke-linecap:square;stroke-linejoin:miter;stroke-dasharray:none;stroke-opacity:1"
         d="M 72.852361,634.46758 H 22.517246 l 25.167557,-25.16756 z"
         sodipodi:nodetypes="cccc" /><path
         id="rect2-1-5-8-3"
         style="display:inline;fill:#cbcbcb;fill-opacity:1;stroke:none;stroke-width:1.80152;stroke-linecap:square;stroke-linejoin:miter;stroke-dasharray:none;stroke-opacity:1"
         d="M 72.852362,671.57977 H 22.517244 l 25.167558,-25.16756 z"
         sodipodi:nodetypes="cccc" /></g></g><g
     inkscape:label="vertices"
     inkscape:groupmode="layer"
     id="vertices"
     style="display:inline;fill:none;stroke:#b84242;stroke-width:1;stroke-dasharray:none;stroke-opacity:1"><path
       id="path18"
       style="display:inline;opacity:1;fill:#000000;fill-opacity:0.479657;stroke:#c34040;stroke-width:1.18983;stroke-linejoin:bevel;stroke-dasharray:none;stroke-opacity:1"
       d="m 1589.6321,204.14048 55.9667,23.52539 41.1719,41.71484 22.5254,54.10742 0.029,60.71094 -23.5273,55.9668 -41.7129,41.17187 -54.1094,22.52539 -60.7109,0.0293 -55.9649,-23.52734 -41.1719,-41.71289 -22.5253,-54.10938 -0.029,-60.71094 23.5273,-55.96679 41.7129,-41.16992 54.1094,-22.5254 -1.9532,-11.71679 -4.748,1.79883 -53.6426,22.33203 -3.7812,3.51367 -41.2774,40.74023 -2.1172,4.61328 -23.3828,55.625 -0.164,5.08008 0.029,60.33985 1.7988,4.74804 22.332,53.64258 3.4375,3.70508 40.8184,41.35352 4.6133,2.11718 55.623,23.38282 5.0801,0.16406 60.3398,-0.0293 4.7481,-1.79883 53.6426,-22.33203 3.705,-3.4375 41.3536,-40.81836 2.1171,-4.61328 23.3829,-55.625 0.164,-5.08008 -0.029,-60.33984 -1.7988,-4.74805 -22.332,-53.64062 -3.5118,-3.78125 -40.7441,-41.2793 -4.6133,-2.11719 -55.625,-23.38086 -2.5293,-0.18164 z"
       sodipodi:nodetypes="ccccccccccccccccccccccccccccccccccccccccccccccccc" /><path
       id="rect13"
       style="fill:#848484;fill-opacity:0.550321;stroke:none;stroke-width:0.965609;stroke-linejoin:bevel;stroke-dasharray:none;stroke-opacity:1"
       d="M 77.6875,90.746765 V 338.22317 h 10 V 90.746765 Z"
       sodipodi:nodetypes="ccccc" /><path
       id="path3"
       style="fill:#848484;fill-opacity:0.550321;stroke:none;stroke-width:1.41421;stroke-linejoin:bevel;stroke-dasharray:none;stroke-opacity:1"
       d="M 314.78303,90.746765 V 403.34944 h 20 V 107.36377 Z"
       sodipodi:nodetypes="ccccc" /><path
       id="rect16"
       style="fill:#848484;fill-opacity:0.550321;stroke:none;stroke-width:1;stroke-linejoin:bevel;stroke-dasharray:none;stroke-opacity:1"
       d="M -0.21696903,-0.21696903 H 18.21697 V 720 H -0.21696903 Z" /><path
       id="path16"
       style="fill:#848484;fill-opacity:0.550321;stroke:none;stroke-width:0.882525;stroke-linejoin:bevel;stroke-dasharray:none;stroke-opacity:1"
       d="M 18.21697,9.5330353 V 76.123939 h 0.222387 L 23.536117,50.87589 38.043377,29.359443 59.55982,14.852191 85.121492,9.6918895 V 9.5330353 Z" /><path
       id="rect17-1"
       style="display:inline;fill:#848484;fill-opacity:0.550321;stroke:none;stroke-width:1;stroke-linejoin:bevel;stroke-dasharray:none;stroke-opacity:1"
       d="m 0,700 h 1280 v 20 H 0 Z"
       sodipodi:nodetypes="ccccc" /><path
       id="rect17-1-7"
       style="display:inline;fill:#848484;fill-opacity:0.550321;stroke:none;stroke-width:1;stroke-linejoin:bevel;stroke-dasharray:none;stroke-opacity:1"
       d="M 18.215218,-0.21871673 H 1269.8659 V 9.7847873 H 18.215218 Z"
       sodipodi:nodetypes="ccccc" /><path
       id="rect19-8"
       style="display:inline;fill:#848484;fill-opacity:0.550321;stroke:none;stroke-width:1;stroke-linejoin:bevel;stroke-dasharray:none;stroke-opacity:1"
       d="m -204.64783,145.84177 5,-5 5,5 -5,5 z" /><path
       id="rect19-8-3"
       style="display:inline;fill:#848484;fill-opacity:0.550321;stroke:none;stroke-width:1;stroke-linejoin:bevel;stroke-dasharray:none;stroke-opacity:1"
       d="m 147.6875,130.99253 5,-5 5,5 -5,5 z" /><path
       id="rect19-9"
       style="display:inline;fill:#848484;fill-opacity:0.550321;stroke:none;stroke-width:1;stroke-linejoin:bevel;stroke-dasharray:none;stroke-opacity:1"
       d="m 244.24817,130.99253 5,-5 5,5 -5,5 z" /><path
       id="rect19-8-1"
       style="display:inline;fill:#848484;fill-opacity:0.550321;stroke:none;stroke-width:1;stroke-linejoin:bevel;stroke-dasharray:none;stroke-opacity:1"
       d="m 196.23526,182.99254 5,-5 5,5 -5,5 z" /><circle
       style="fill:#848484;fill-opacity:0.550321;stroke:none;stroke-width:1;stroke-dasharray:none;stroke-opacity:1"
       id="path5"
       cy="-85.737495"
       cx="1024.6827"
       r="25" /><rect
       style="fill:#848484;fill-opacity:0.550321;stroke:none;stroke-width:1;stroke-dasharray:none;stroke-opacity:1"
       id="rect6"
       width="94.952003"
       height="50"
       x="782.19458"
       y="-153.66643" /><path
       id="rect6-8-1"
       style="display:inline;fill:#848484;fill-opacity:0.550321;stroke:none;stroke-width:1.62407;stroke-dasharray:none;stroke-opacity:1"
       d="M 644.6582,90.417969 V 202.16406 h 5.375 l 15.31641,-36.49218 23.82617,-30.85743 30.92578,-23.8164 z" /><path
       id="rect6-8-1-2"
       style="display:inline;fill:#848484;fill-opacity:0.550321;stroke:none;stroke-width:1.62407;stroke-dasharray:none;stroke-opacity:1"
       d="m 951.54688,90.392578 -76.18165,20.441402 31.23829,23.53321 24.10937,30.54883 15.55859,36.17382 h 5.2754 z" /><path
       id="rect6-8-1-1"
       style="display:inline;fill:#848484;fill-opacity:0.550321;stroke:none;stroke-width:1.63405;stroke-dasharray:none;stroke-opacity:1"
       d="m 951.54678,281.37154 h -5.375 l -15.31695,36.94225 -23.82514,31.23748 -30.92548,24.10953 -36.61798,15.55839 v 5.2754 h 112.06055 z"
       sodipodi:nodetypes="ccccccccc" /><path
       id="rect6-8-1-2-6"
       style="display:inline;fill:#848484;fill-opacity:0.550321;stroke:none;stroke-width:1.63405;stroke-dasharray:none;stroke-opacity:1"
       d="m 644.6582,282.45898 v 112.06055 h 112.06055 v -5.81641 l -35.88086,-14.875 -31.23633,-23.82421 -24.10937,-30.92579 -15.5586,-36.61914 z" /><path
       id="rect6-8-1-5"
       style="display:inline;fill:#848484;fill-opacity:0.550321;stroke:none;stroke-width:1.63405;stroke-dasharray:none;stroke-opacity:1"
       d="m 644.65803,507.64353 h 5.375 l 15.31695,-36.94225 23.82514,-31.23748 30.92548,-24.10953 36.61798,-15.55839 v -5.2754 H 644.65803 Z"
       sodipodi:nodetypes="ccccccccc" /><path
       id="rect6-8-1-2-4"
       style="display:inline;fill:#848484;fill-opacity:0.550321;stroke:none;stroke-width:1.63405;stroke-dasharray:none;stroke-opacity:1"
       d="m 839.48633,394.49414 v 5.81641 l 35.8789,14.87695 31.23829,23.82422 24.10937,30.92578 15.55859,28.61719 h 5.2754 V 394.49414 Z"
       sodipodi:nodetypes="ccccccccc" /><path
       id="rect6-8-1-1-3"
       style="display:inline;fill:#848484;fill-opacity:0.550321;stroke:none;stroke-width:1.63405;stroke-dasharray:none;stroke-opacity:1"
       d="m 951.54678,594.85106 h -5.375 l -15.31695,28.94225 -23.82514,31.23748 -30.92548,24.10953 -36.61798,15.55839 v 5.2754 h 112.06055 z"
       sodipodi:nodetypes="ccccccccc" /><path
       id="rect6-8-1-2-6-1"
       style="display:inline;fill:#848484;fill-opacity:0.550321;stroke:none;stroke-width:1.63405;stroke-dasharray:none;stroke-opacity:1"
       d="m 757.78108,700 v -5.375 l -36.94225,-15.31695 -31.23748,-23.82514 -24.10953,-30.92548 -15.55839,-36.61798 h -5.2754 V 700 Z"
       sodipodi:nodetypes="ccccccccc" /><rect
       style="display:inline;fill:#848484;fill-opacity:0.550321;stroke:none;stroke-width:1;stroke-dasharray:none;stroke-opacity:1"
       id="rect6-0"
       width="50"
       height="105.75"
       x="1122.9966"
       y="-187.539" /><path
       id="path7"
       style="display:inline;fill:#848484;fill-opacity:0.550321;stroke:none;stroke-width:1;stroke-linejoin:bevel;stroke-dasharray:none;stroke-opacity:1"
       d="m -147.44073,350.93039 5,-5 5,5 -5,5 z" /><path
       id="path9"
       style="display:inline;fill:#848484;fill-opacity:0.550321;stroke:none;stroke-width:1;stroke-linejoin:bevel;stroke-dasharray:none;stroke-opacity:1"
       d="m -31.83961,205.49253 5,-5 5,5 -5,5 z" /><path
       id="path10"
       style="display:inline;fill:#848484;fill-opacity:0.550321;stroke:none;stroke-width:1;stroke-linejoin:bevel;stroke-dasharray:none;stroke-opacity:1"
       d="m 147.6875,234.99253 5,-5 5,5 -5,5 z" /><path
       id="path11"
       style="display:inline;fill:#848484;fill-opacity:0.550321;stroke:none;stroke-width:1;stroke-linejoin:bevel;stroke-dasharray:none;stroke-opacity:1"
       d="m 244.78304,234.99253 5,-5 5,5 -5,5 z" /><path
       id="path15"
       style="display:inline;fill:#848484;fill-opacity:0.550321;stroke:none;stroke-width:1;stroke-linejoin:bevel;stroke-dasharray:none;stroke-opacity:1"
       d="m -130.11105,296.99253 5,-5 5,5 -5,5 z" /><path
       id="path19"
       style="display:inline;fill:#848484;fill-opacity:0.550321;stroke:none;stroke-width:1;stroke-linejoin:bevel;stroke-dasharray:none;stroke-opacity:1"
       d="m 196.23526,286.99253 5,-5 5,5 -5,5 z" /><path
       id="path2"
       style="fill:#848484;fill-opacity:0.550321;stroke:none;stroke-width:0.945968;stroke-linejoin:bevel;stroke-dasharray:none;stroke-opacity:1"
       d="M 234.78304,400.72082 78.218742,453.588 l -0.0018,10.00196 156.566038,-52.3086 z"
       sodipodi:nodetypes="ccccc" /><path
       id="rect2"
       style="fill:#848484;fill-opacity:0.550321;stroke:none;stroke-width:0.607782;stroke-linejoin:bevel;stroke-dasharray:none;stroke-opacity:1"
       d="M 634.65803,282.45898 H 644.6582 V 507.64353 H 634.65803 Z" /><path
       id="rect2-7"
       style="display:inline;fill:#848484;fill-opacity:0.550321;stroke:none;stroke-width:0.428197;stroke-linejoin:bevel;stroke-dasharray:none;stroke-opacity:1"
       d="M 634.65803,99.232046 644.6582,90.393211 V 202.16406 h -10.00017 z"
       sodipodi:nodetypes="ccccc" /><path
       id="rect2-7-5"
       style="display:inline;fill:#848484;fill-opacity:0.550321;stroke:none;stroke-width:0.426299;stroke-linejoin:bevel;stroke-dasharray:none;stroke-opacity:1"
       d="m 951.54688,90.304827 h 9.9999 V 201.08984 h -9.9999 z" /><rect
       style="fill:#848484;fill-opacity:0.550321;stroke:none;stroke-width:1;stroke-linejoin:bevel;stroke-dasharray:none;stroke-opacity:1"
       id="rect1"
       width="640"
       height="34.075745"
       x="-0.21696903"
       y="-34.292709" /><rect
       style="display:inline;fill:#848484;fill-opacity:0.550321;stroke:none;stroke-width:1;stroke-linejoin:bevel;stroke-dasharray:none;stroke-opacity:1"
       id="rect1-8"
       width="320"
       height="34.075745"
       x="-0.2169745"
       y="-68.368454" /><path
       id="path4"
       style="fill:#848484;fill-opacity:0.550321;stroke:none;stroke-width:1.41421;stroke-linejoin:bevel;stroke-dasharray:none;stroke-opacity:1"
       d="m 314.78303,472.83893 v 63.25269 h 20 v -63.25269 z" /><path
       id="path17"
       style="display:inline;fill:#848484;fill-opacity:0.550321;stroke:none;stroke-width:1;stroke-linejoin:bevel;stroke-dasharray:none;stroke-opacity:1"
       d="m 314.78303,153.24047 -29.75204,29.75205 29.75204,29.75207 z"
       inkscape:label="wall" /><path
       id="path20"
       style="display:inline;fill:#848484;fill-opacity:0.550321;stroke:none;stroke-width:1;stroke-linejoin:bevel;stroke-dasharray:none;stroke-opacity:1"
       d="m -19.37191,257.24047 -29.75204,29.75205 29.75204,29.75207 z" /><path
       id="path21"
       style="display:inline;fill:#848484;fill-opacity:0.550321;stroke:none;stroke-width:1;stroke-linejoin:bevel;stroke-dasharray:none;stroke-opacity:1"
       d="M 87.6875,151.64688 117.43954,181.39893 87.6875,211.151 Z" /><path
       id="path1"
       style="display:inline;fill:#848484;fill-opacity:0.550321;stroke:none;stroke-width:1;stroke-linejoin:bevel;stroke-dasharray:none;stroke-opacity:1"
       d="M 182.91354,9.7847873 202.16559,29.036827 221.41765,9.7847873 Z" /><path
       id="path12"
       style="display:inline;fill:#848484;fill-opacity:0.550321;stroke:none;stroke-width:0.38284;stroke-linejoin:bevel;stroke-dasharray:none;stroke-opacity:1"
       d="m 951.54677,427.47598 v 71.07871 h 8.76878 v -71.07871 z"
       sodipodi:nodetypes="ccccc" /><path
       id="path13"
       style="display:inline;fill:#848484;fill-opacity:0.550321;stroke:none;stroke-width:1;stroke-linejoin:bevel;stroke-dasharray:none;stroke-opacity:1"
       d="M 1262.2788,-0.21679688 V 720 H 1280 V -0.21679688 Z" /><path
       id="rect18"
       style="opacity:1;fill:#848484;fill-opacity:0.550321;stroke:none;stroke-width:1.58887;stroke-linejoin:bevel"
       d="M 1262.2793,404.20254 H 951.54688 v 23.27344 h 310.73242 z"
       sodipodi:nodetypes="ccccc" /><path
       id="path33"
       style="opacity:1;fill:#848484;fill-opacity:0.550321;stroke:none;stroke-width:0.391271;stroke-linejoin:bevel"
       d="M 757.78108,694.69871 V 700 h 81.70515 v -5.30129 z"
       sodipodi:nodetypes="ccccc" /><rect
       style="opacity:1;fill:#000000;fill-opacity:0.479657;stroke:#c34040;stroke-width:0.484561;stroke-linejoin:bevel;stroke-opacity:1"
       id="rect19"
       width="152.81589"
       height="152.81589"
       x="1353.5323"
       y="-39.201595" /><path
       id="path25"
       style="opacity:1;fill:#000000;fill-opacity:0.479657;stroke:#c34040;stroke-width:0.484561;stroke-linejoin:bevel;stroke-opacity:1"
       d="m 1505.0968,611.762 -30.7969,3.10352 -28.6855,8.90429 -25.9571,14.08985 -22.6172,18.66015 -18.6601,22.61719 -14.0899,25.95703 -8.9043,28.68559 -3.1035,30.7968 V 611.762 Z" /><path
       style="display:inline;fill:#848484;fill-opacity:0.550321;stroke:none;stroke-width:1.19594;stroke-linejoin:bevel;stroke-dasharray:none;stroke-opacity:1"
       d="m 951.62901,281.37154 250.64979,122.80183 -250.73202,0.10657 z"
       id="path14-1"
       sodipodi:nodetypes="cccc" /><path
       id="path35-5-8"
       style="display:inline;fill:#848484;fill-opacity:0.550321;stroke:none;stroke-width:0.566731;stroke-linejoin:bevel;stroke-dasharray:none;stroke-opacity:1"
       d="m 989.60918,-242.43602 h -23.2754 v 88.76959 h 23.2754 v -44.3848 z" /><path
       id="path16-8-5"
       style="display:inline;fill:#848484;fill-opacity:0.550321;stroke:none;stroke-width:1.17646;stroke-linejoin:bevel;stroke-dasharray:none;stroke-opacity:1"
       d="m 966.33378,-242.43602 v 88.76959 l -7.09074,-33.65714 -19.33903,-28.68268 -28.68268,-19.33902 -34.07521,-7.09075 z"
       sodipodi:nodetypes="ccccccc" /><path
       id="path16-8-5-3"
       style="display:inline;fill:#848484;fill-opacity:0.550321;stroke:none;stroke-width:2.09484;stroke-linejoin:bevel;stroke-dasharray:none;stroke-opacity:1"
       d="M 1262.5297,9.5196301 V 167.58567 l -12.6259,-59.93102 -34.4359,-51.07332 -51.0732,-34.435695 -60.6756,-12.6260227 z"
       sodipodi:nodetypes="ccccccc" /><path
       id="path62"
       style="fill:#848484;fill-opacity:0.550321;stroke:none;stroke-width:1.33103;stroke-linejoin:bevel;stroke-dasharray:none;stroke-opacity:1"
       d="M 634.65803,587.93945 V 700 h 10 V 587.93945 Z" /></g><g
     inkscape:groupmode="layer"
     id="g75"
     inkscape:label="wall_image_"
     transform="translate(0,4)"
     style="display:inline;fill:#c8c8c8;fill-opacity:1"><path
       id="path63"
       style="display:inline;fill:#c8c8c8;fill-opacity:1;stroke:#8d8d8d;stroke-width:1;stroke-linejoin:bevel;stroke-dasharray:none;stroke-opacity:1"
       d="m 314.78303,472.83893 v 63.25269 h 20 v -63.25269 z" /><path
       id="path65"
       style="display:inline;fill:#c8c8c8;fill-opacity:1;stroke:#8d8d8d;stroke-width:1;stroke-dasharray:none;stroke-opacity:1"
       d="m 946.17188,586.85156 -15.31641,36.94141 -23.82617,31.23828 -30.92578,24.10937 -36.61719,15.5586 h -81.70508 v -0.0742 l -36.94336,-15.31641 -31.23633,-23.82617 -24.10937,-30.92578 -15.5586,-36.61719 h -5.27539 -10 V 700 h 10 113.12305 81.70508 v -0.0254 H 951.54688 V 586.85156 Z" /><path
       id="path67"
       style="display:inline;fill:#c8c8c8;fill-opacity:1;stroke:#8d8d8d;stroke-width:1;stroke-dasharray:none;stroke-opacity:1"
       d="m 946.17188,281.37109 -15.31641,36.94336 -23.82617,31.23633 -30.92578,24.10938 -36.61719,15.55859 v 5.27539 5.81641 l 35.8789,14.87695 31.23829,23.82422 24.10937,30.92578 15.55859,36.61719 h 5.2754 8.76953 v -79.07813 h 301.96289 v -23.27344 l -60,-0.0293 -250.65039,-122.80274 h -0.082 z"
       sodipodi:nodetypes="cccccccccccccccccccc" /><path
       id="path68"
       style="display:inline;fill:#c8c8c8;fill-opacity:1;stroke:#8d8d8d;stroke-width:1;stroke-dasharray:none;stroke-opacity:1"
       d="m 634.6582,282.45898 v 225.1836 h 10 5.375 l 15.31641,-36.94141 23.82617,-31.23828 30.92578,-24.10937 36.61719,-15.5586 v -5.27539 -5.81641 l -35.88086,-14.875 -31.23633,-23.82421 -24.10937,-30.92579 -15.5586,-36.61914 h -5.27539 z" /><path
       id="path69"
       style="display:inline;fill:#c8c8c8;fill-opacity:1;stroke:#8d8d8d;stroke-width:1;stroke-linejoin:bevel;stroke-dasharray:none;stroke-opacity:1"
       d="M 234.78304,400.72082 78.218742,453.588 l -0.0018,10.00196 156.566038,-52.3086 z"
       sodipodi:nodetypes="ccccc" /><path
       id="path70"
       style="display:inline;fill:#c8c8c8;fill-opacity:1;stroke:#8d8d8d;stroke-width:1;stroke-dasharray:none;stroke-opacity:1"
       d="m 645.6582,89.892578 -11,112.271482 h 15.375 l 15.31641,-36.49218 23.82617,-30.85743 30.92578,-23.8164 v -4 z"
       sodipodi:nodetypes="cccccccc" /><path
       id="path71"
       style="display:inline;fill:#c8c8c8;fill-opacity:1;stroke:#8d8d8d;stroke-width:1;stroke-linejoin:bevel;stroke-dasharray:none;stroke-opacity:1"
       d="m 314.7832,90.746094 v 62.494136 l -29.75195,25.75196 v 4 l 29.75195,29.75195 v 190.60547 h 20 V 100.12109 Z"
       sodipodi:nodetypes="ccccccccc" /><path
       id="path72"
       style="display:inline;fill:#c8c8c8;fill-opacity:1;stroke:#8d8d8d;stroke-width:1;stroke-linejoin:bevel;stroke-dasharray:none;stroke-opacity:1"
       d="m 18.214844,-0.21875 v 0.001953 H -0.21679688 V 720 H 0 18.216797 1280 V 700 -0.21679688 h -10.1348 V -0.21875 Z M 84.65625,9.7851562 h 98.25781 L 202.16602,29.037109 221.41797,9.7851562 h 883.57813 l 59.3984,12.3613278 51.0743,34.435547 34.4355,51.072269 12.375,58.74414 V 700 H 18.216797 V 76.123047 h 0.222656 L 23.535156,50.875 38.042969,29.359375 59.560547,14.851562 Z" /><path
       id="path73"
       style="display:inline;fill:#c8c8c8;fill-opacity:1;stroke:#8d8d8d;stroke-width:1;stroke-linejoin:bevel;stroke-dasharray:none;stroke-opacity:1"
       d="M 77.6875,90.746094 V 337.72266 h 10 V 211.15039 l 29.75195,-29.75195 v -4 L 87.6875,151.64648 V 90.746094 Z"
       sodipodi:nodetypes="ccccccccc" /><path
       id="path74"
       style="display:inline;fill:#c8c8c8;fill-opacity:1;stroke:#8d8d8d;stroke-width:1;stroke-dasharray:none;stroke-opacity:1"
       d="m 951.54688,90.304688 -76.18165,16.529292 v 4 l 31.23829,23.53321 24.10937,30.54883 15.55859,36.17382 h 5.2754 10 V 90.304688 Z"
       sodipodi:nodetypes="cccccccccc" /><path
       id="path75"
       style="display:inline;fill:#c8c8c8;fill-opacity:1;stroke:#8d8d8d;stroke-width:1;stroke-linejoin:bevel;stroke-dasharray:none;stroke-opacity:1"
       d="m 152.6875,125.99219 -5,5 5,5 5,-5 z m 96.56055,0 -5,5 5,5 5,-5 z m -48.01367,52 -5,5 5,5 5,-5 z m -48.54688,52 -5,5 5,5 5,-5 z m 97.0957,0 -5,5 5,5 5,-5 z m -48.54882,52 -5,5 5,5 5,-5 z" /></g><g
     inkscape:groupmode="layer"
     id="layer2"
     inkscape:label="wall_image"
     style="display:inline"><path
       id="path51"
       style="display:inline;fill:#ffffff;fill-opacity:1;stroke:#8d8d8d;stroke-width:1;stroke-linejoin:bevel;stroke-dasharray:none;stroke-opacity:1"
       d="m 314.78303,472.83893 v 63.25269 h 20 v -63.25269 z" /><path
       id="path48"
       style="display:inline;fill:#ffffff;fill-opacity:1;stroke:#8d8d8d;stroke-width:1;stroke-dasharray:none;stroke-opacity:1"
       d="m 946.17188,586.85156 -15.31641,36.94141 -23.82617,31.23828 -30.92578,24.10937 -36.61719,15.5586 h -81.70508 v -0.0742 l -36.94336,-15.31641 -31.23633,-23.82617 -24.10937,-30.92578 -15.5586,-36.61719 h -5.27539 -10 V 700 h 10 113.12305 81.70508 v -0.0254 H 961.92861 V 586.85156 Z"
       sodipodi:nodetypes="ccccccccccccccccccccc" /><path
       id="path44"
       style="display:inline;fill:#ffffff;fill-opacity:1;stroke:#8d8d8d;stroke-width:1;stroke-dasharray:none;stroke-opacity:1"
       d="m 946.17188,281.37109 -15.31641,36.94336 -23.82617,31.23633 -30.92578,24.10938 -36.61719,15.55859 v 5.27539 5.81641 l 35.8789,14.87695 31.23829,23.82422 24.10937,30.92578 15.55859,36.61719 h 5.2754 8.76953 v -79.07813 h 301.96289 v -23.27344 l -60,-0.0293 -250.65039,-122.80274 h -0.082 z"
       sodipodi:nodetypes="cccccccccccccccccccc" /><path
       id="path42"
       style="display:inline;fill:#ffffff;fill-opacity:1;stroke:#8d8d8d;stroke-width:1;stroke-dasharray:none;stroke-opacity:1"
       d="m 634.6582,282.45898 v 225.1836 h 10 5.375 l 15.31641,-36.94141 23.82617,-31.23828 30.92578,-24.10937 36.61719,-15.5586 v -5.27539 -5.81641 l -35.88086,-14.875 -31.23633,-23.82421 -24.10937,-30.92579 -15.5586,-36.61914 h -5.27539 z" /><path
       id="path39"
       style="display:inline;fill:#ffffff;fill-opacity:1;stroke:#8d8d8d;stroke-width:1;stroke-linejoin:bevel;stroke-dasharray:none;stroke-opacity:1"
       d="M 234.78304,400.72082 78.218742,453.588 l -0.0018,10.00196 156.566038,-52.3086 z"
       sodipodi:nodetypes="ccccc" /><path
       id="path40"
       style="display:inline;fill:#ffffff;fill-opacity:1;stroke:#8d8d8d;stroke-width:1;stroke-dasharray:none;stroke-opacity:1"
       d="m 634.6582,99.39258 v 102.77148 h 10 5.375 l 15.31641,-36.49218 23.82617,-30.85743 30.92578,-23.8164 -75.44336,-20.580081 z"
       sodipodi:nodetypes="ccccccccc" /><path
       id="path14"
       style="display:inline;fill:#ffffff;fill-opacity:1;stroke:#8d8d8d;stroke-width:1;stroke-linejoin:bevel;stroke-dasharray:none;stroke-opacity:1"
       d="m 314.7832,90.746094 v 62.494136 l -29.75195,29.75196 29.75195,29.75195 v 190.60547 h 20 V 102.74609 l -13.875,-11.999996 z"
       sodipodi:nodetypes="ccccccccc" /><path
       id="path22"
       style="display:inline;fill:#ffffff;fill-opacity:1;stroke:#8d8d8d;stroke-width:1;stroke-linejoin:bevel;stroke-dasharray:none;stroke-opacity:1"
       d="m 18.214844,-0.21875 v 0.001953 H -0.21679688 V 720 H 0 18.216797 1280 V 700 -0.21679688 h -10.1348 V -0.21875 Z M 84.65625,9.7851562 h 98.25781 L 202.16602,29.037109 221.41797,9.7851562 h 883.57813 l 59.3984,12.3613278 51.0743,34.435547 34.4355,51.072269 12.375,58.74414 V 700 H 18.216797 V 76.123047 h 0.222656 L 23.535156,50.875 38.042969,29.359375 59.560547,14.851562 Z" /><path
       id="path30"
       style="display:inline;fill:#ffffff;fill-opacity:1;stroke:#8d8d8d;stroke-width:1;stroke-linejoin:bevel;stroke-dasharray:none;stroke-opacity:1"
       d="M 77.6875,90.746094 V 337.72266 h 10 V 211.15039 L 117.43945,181.39844 87.6875,151.64648 V 90.746094 Z"
       sodipodi:nodetypes="cccccccc" /><path
       id="path41"
       style="display:inline;fill:#ffffff;fill-opacity:1;stroke:#8d8d8d;stroke-width:1;stroke-dasharray:none;stroke-opacity:1"
       d="m 951.54688,90.304688 v 0.08789 l -76.18165,20.441402 31.23829,23.53321 24.10937,30.54883 15.55859,36.17382 h 5.2754 10 V 90.304688 Z" /><path
       id="path34"
       style="display:inline;fill:#ffffff;fill-opacity:1;stroke:#8d8d8d;stroke-width:1;stroke-linejoin:bevel;stroke-dasharray:none;stroke-opacity:1"
       d="m 152.6875,125.99219 -5,5 5,5 5,-5 z m 96.56055,0 -5,5 5,5 5,-5 z m -48.01367,52 -5,5 5,5 5,-5 z m -48.54688,52 -5,5 5,5 5,-5 z m 97.0957,0 -5,5 5,5 5,-5 z m -48.54882,52 -5,5 5,5 5,-5 z" /></g></svg>
